<?xml version="1.0" encoding="utf-8"?>
<!-- Generator: Adobe Illustrator 22.0.1, SVG Export Plug-In . SVG Version: 6.00 Build 0)  -->
<svg version="1.1" id="Ebene_1" xmlns="http://www.w3.org/2000/svg" xmlns:xlink="http://www.w3.org/1999/xlink" x="0px" y="0px"
	 viewBox="0 0 298.9 415.5" style="enable-background:new 0 0 298.9 415.5;" xml:space="preserve">
<style type="text/css">
	.st0{fill:#7D4C32;}
</style>
<title>Element 3</title>
<g id="Ebene_2_1_">
	<g id="Ebene_1-2">
		<g id="logo_v01">
			<path class="st0" d="M62.1,397.5c-6.1-2.4-11.8-7.5-11.8-14.1c-0.1-44.7-8.4-135.2-11.8-153.9c-1.3-7.5-3.9-14.4-9.5-19.8
				c-12.5-12.3-18.8-28.1-24.2-44.3c-1.2-3.6-2.4-7.1-3.5-10.7C-1.5,145.5,0,137,7,130.3c7-6.7,15.5-8.1,24.5-5.4
				c2.7,0.9,5.3,1.9,7.8,3.1c1.2,0.6,2.7,0,3.3-1.2c0,0,0-0.1,0-0.1c0.1-0.3,0.2-0.5,0.2-0.8c0.7-10.7,2.6-43.1,3.5-56.6
				c0.2-3.5-1.5-6.8-4.4-8.7c-2-1.2-3.8-2.8-5.1-4.7c-1.3-2.1-1.4-4.6-0.4-6.8l5.3-11.5c1-2.1,2.7-3.8,4.8-4.7c2-0.9,4.4-2,5.8-2.7
				c2-1,3.4-2.8,3.9-4.9c1.3-5.7,4-17.3,5.8-21.1c1.2-2.6,3.9-4.3,6.7-4.2c96.7,0,161.8,12.8,182.9,17.1c3.1,0.6,5.4,3.2,5.7,6.4
				c0.4,4,0.8,14.2,0.8,16.5c-0.1,3.1,0,11.6,2.5,12.2c2.2,0.5,15.5,2.6,13.6,13c-0.8,4.4,8,21.2-6.8,23.1c-2.5,0.3-6.2,1.3-8.1,9.3
				c-0.3,1.2,0.4,2.4,1.5,2.9c5.3,2.1,10.6,4.1,15.7,6.4c35.5,15.7,8.9,61.6-9.4,82.3c-0.9,0.9-0.9,2.5,0.1,3.4c0,0,0,0,0,0
				c0.4,0.4,1,0.6,1.6,0.7l0,0c12.1,0.9,21.9,6.6,26.3,17.7c2.7,7.4,4,15.2,3.7,23c-0.3,5.5-4.2,13-8.2,16.4
				c-6.4,5.4-17.1,14.4-21.7,18.3c-1,0.8-1.3,2.2-0.5,3.3c0.1,0.2,0.3,0.3,0.5,0.5c22.8,16.8,3.6,39.7,2.2,46.4
				c-3.5,16.7,1.7,19.4-0.8,37.1c-3.8,26.9-32.3,37.9-46.4,38.3c-3.6,0.1-6.8,2.3-8.1,5.6c-0.1,0.2-0.2,0.5-0.2,0.7
				c-0.4,2.1-1.7,3.8-3.5,4.9c-2.5,1.4-5.1,2.6-7.8,3.6c-9.1,3.8-19.5,6.4-37.8,6.4C141.8,415.6,100,412.5,62.1,397.5z M208.1,330.1
				c-24.7,4.4-25.3,2.5-37.1,4.1c-8,1.2-25.6-1.2-29.9-7.5c-2.1-3.1-18.1-28.9,8.4-45.5c6.3-3.9,13.6-3.5,21.1-4.1
				c13.5-1.1,26.6-1.8,39.1-7.5c16.9-7.8,24.1-15.2,24.4-16.9c-1.7,0.2-30.9,7.7-50.7,2.1c-13.4-3.8-30.7-35.9-10.6-50.2
				c5.1-3.6,5.1-3.6,10.5-5.4s12.6-2,18.2-2.4c10.6-0.9,28-2.4,31.8-2.9c0,0,3.4-31.6,11.3-45.4c-8.4-11.3-13.3-23.8-8.2-37.1
				c3.6-8.7,14.4-12.6,16.3-12.6l4.8-23.8c-5.8-1-52.7-7.6-67.9-9.7c-2.7-0.4-5.4,0.8-6.9,3.1c-0.7,1.1-1.8,2.5-2.9,3.9
				c-4,5.1-9.3,9-15.3,11.4c-5.8,2.3-21.5,6.7-36.1,10.8c-17.9,4.9-30.7,20.8-31.6,39.4c-2.8,56.4-8.4,219.2-9.5,249.8
				c-0.1,3,1.8,5.8,4.6,6.9c39.5,15.1,81.4,13.9,96.6,11.7c3.2-0.4,15-1.8,15.4-5c0.3-2.1,0.6-4.1,1-6c0.5-2.8,3-4.8,5.8-4.8h19.1
				c14.7,0.1,27.3-10.3,30.1-24.7c0.8-3.9,0-13.1,0-18c2,2.4,3.7,9.3,6.2,12.2c0.4-3.5,1.2-6.2,1-8.8c-0.3-3.6-4.5-28.3,2-36.7
				c7.5-9.7,6.2-21.2-0.3-31c-6-8.9-15.6-11.8-26.1-10.4c-7.5,0.9-15,2.2-22.4,3.9c-18.8,4.6-37.9,7.5-57.2,8.6
				c-4.7,0.3-9.8,0.9-13.7,3c-8.1,4.4-13.1,13.5-10.4,28.2c1.3,7.2,1.8,16.5,23.6,18.1c2,0.1,3.9,0.1,5.9-0.1
				c10.1-1.2,52.5-5.9,92.9-14c-23.6,9.3-46.1,9.3-52,19.7c19.4-8.1,36.5-10.6,43.8-1.7c-0.8,0.4-12.4-8.1-35.9,3.9
				c-2,0.7-4.1,1.2-6.2,1.5c-6.2,1.3-12.6,1.7-19,1.2c-7.9-0.5-18.8-1.3-24-1.6c-24.4,0.8-29.9,11-27.7,23.6
				c3.4,13.4,10.9,20.7,72.6,23.1c-0.8,0,8.7,2.8-3.8,2.8c-17.9,0-43.5,1.7-64.4-8.1c-14.3-15.1-12.8-35.4,0.6-41.5
				c13.1-5.9,35.9-2.2,48.5-1.5C200.9,338.8,208.3,337.4,208.1,330.1L208.1,330.1z M261.6,267.2c2.6-3.2,16.6-15,22.1-19.9
				c7.5-6.6,10.4-14.7,8.1-24.7c-3.5-15.2-11.6-25.4-29.4-24.6c-6.3,0.3-12.7,0.3-19,0.3c-3.2,0-23.4,1.5-26.5,1.8
				c-11.9,0.9-14.4,0.6-26.4,1.9c-8.6,0.9-15.3,5-18.7,13.3c-1.4,3.1-2.2,6.5-2.6,9.9c-1.5,13.4,9.7,26.7,28.9,28
				c13.1,0.9,24.5-1.7,37.3-4.9c3.4-0.7,6.7-1.9,9.9-3.4c-1,1.9-5.1,4.5-6.8,5.3c-0.1,0-0.1,0-0.2,0.1c-0.4,0.2-0.5,0.7-0.3,1.1
				c0,0,0,0,0,0c0.1,0.2,0.4,0.4,0.7,0.4c5.4,0.5,17.2-1.2,40.1-6.1c-6.3,1.6-14.1,5.4-32.2,10.2c-7.4,2-28.4,12.6-27.9,12.5
				C227.4,266.9,254.1,262.8,261.6,267.2L261.6,267.2z M269.5,156.7c-5.5,1.4-11.2,0.6-16.2-2c-4.6-2.3-5.8-1.7-7.9,3.5
				c-0.5,1.2-0.9,2.4-1.3,3.6c-1.4,5.1-1.2,6,3.5,8.3c3.6,1.8,7.5,3,11.3,4.5c-0.2,0.6-11.1-0.9-16.7-1.8c-1.5,7.6-2.5,12.4-4,20.8
				c7.1-1.4,17.9-0.5,17.9-0.5c-0.1,0.6,2.7-3.9,8.3-9.5c5-5,13-14,15.8-19.6c4.6-9,11.3-24.5,7.9-38.1c-1.8-7.1-10-14.3-15-16.6
				c-4.1-1.6-8.3-2.9-12.5-4c5.9,4,12.7,18.5,13.5,27.9c-0.8-1.3-3.6-13.3-10.9-22.6c-1.5-1.6-3.1-3-4.9-4.3
				c-0.7-0.5-1.5-0.8-2.4-0.8c-5.1-0.8-10.2,1.4-13,5.7c-0.3,0.5-0.7,1.1-1,1.7c-3.3,6.6-3.3,14.5,0.1,21.1c1.9,3.6,4,7,6.4,10.3
				c3.8,5.4,9.3,9.3,15.6,11.1C266.6,155.9,268.9,156.6,269.5,156.7L269.5,156.7z M56.1,154.8c1.5-13.5-11.7-18.9-19.9-20.8
				c-8.2-2.4-16.4-2.2-24.3,4.2c-7.4,6.1-5.7,16-1.9,23.8c3.1,6.3,14.2,32.7,23.2,40.9c8.5,7.8,20.4,7.6,24.2,3.5
				C67.6,195.4,54.6,167.7,56.1,154.8z M252.1,50.4l-0.8-21.6c-0.1-3-2.1-5.6-4.9-6.5c-10.5-3.6-60.2-11-108.7-13.5
				c-3.1-0.2-5.9,1.6-7,4.5c-3.2,7.8-7.3,21.1-7.3,21.1C208.2,40.9,243.1,48.5,252.1,50.4z M43.3,45.1
				c47.5-3.6,184.8,9.9,223.6,22.6c0,0-5-11.3-15-14.6c-11-2.7-113.9-18.6-196.3-18.9c-1.5,0-3,0.5-4.3,1.4
				C46.9,39,43.3,45.1,43.3,45.1L43.3,45.1z M259.8,82c0,0,6.5-2.6,10.2-3.1c0.7-0.1,2.4-0.6,2.4-1.3l-11.3-2L259.8,82z M54.5,50
				c47.5,0.8,133.8,6.5,215.4,22.5l-0.1-0.2c-1-1.7-2.7-2.9-4.6-3.3C216.4,58.1,116.7,46.2,60.1,47.1c-0.9,0-1.8,0.3-2.5,0.8
				L54.5,50z"/>
			<path class="st0" d="M211.5,379.1c9.1-16.1,6.1-21.7,2.5-29.8c-0.3-0.7,0.1-1.5,0.8-1.8c0,0,0,0,0,0c0.2-0.1,0.5-0.1,0.7-0.1
				c1.6,0.1,3.1,0.6,4.4,1.5c0.4,0.3,0.5,0.9,0.2,1.3c-0.2,0.3-0.6,0.4-1,0.3H219c-0.8-0.1-1.5,0.6-1.1,1.3c2.2,4.7,3.3,9.6,2,14.3
				C218.6,371.1,212,379.2,211.5,379.1z"/>
			<path class="st0" d="M235.4,312.2c7.7-19.4,5-24.4-2.4-33.5c-0.1-0.1-0.1-0.3,0.1-0.5c0.1-0.1,0.3-0.1,0.4,0c0,0,0,0,0,0.1
				c18.6,17.1,7.3,26.8,2.5,34.1C235.9,312.7,235.3,312.6,235.4,312.2z"/>
			<path class="st0" d="M226.8,281c6.1,9.1,7,18.7,2.8,28.7c-0.2,0.4-0.8,0.2-0.7-0.2c2.6-11.5,0.3-20.7-2.7-28.2
				C226,281,226.6,280.7,226.8,281z"/>
			<path class="st0" d="M195.8,210.5c3-0.1,6,0,8.5,0.1c7.5,0.4,13.6,6.2,14.2,13.7c0,0.3,0.1,0.6,0.1,0.9c0.5,7.1-4,13.7-10.8,15.8
				c-5.1,1.5-12.4,3.5-16.7,3.6c-1,0.1-2-0.1-2.9-0.5c-5.3-3.1-7-26.2-3.3-31.4C186.1,211.2,190.8,210.6,195.8,210.5 M196.2,208.5
				c-9,0.2-13.1-0.9-16,2.4c-1.7,2.3,0.2,20.8,1.1,24.9c1.1,5.5,4.1,8.5,6.2,9.8c1.2,0.5,2.4,0.8,3.7,0.7c7.3-0.2,22.2-5.2,22.8-5.4
				l0.2-0.1l0.2-0.1c2.6-2,4.3-4.8,5-8c0.8-3.3,0.9-6.7,0.3-10.1c-0.4-2.9-1.5-5.7-3.2-8.1c-1.5-2.3-3.8-4.1-6.5-4.9h-0.2
				C209.7,209.3,196.2,208.5,196.2,208.5L196.2,208.5z"/>
			<path class="st0" d="M250.9,201.9c10.3,15.4,8.4,26.5,6.4,30.3c-2.6,4.7-6.5,5.3-6.6,5.3C256.9,229.3,257.6,214.1,250.9,201.9z"
				/>
			<path class="st0" d="M260.7,237.8c5.9-12.9,3.8-17.8,0.7-26.1C267.3,219,269.8,227.9,260.7,237.8z"/>
			<path class="st0" d="M165,323.4c-4.4,0.4-7.6-3.5-8.7-5c-3.7-4.8-5.1-24.5-0.7-28.1c0.7-0.5,1.6-0.8,2.5-0.8
				c3.8-0.3,10.4,0.9,14.9,1.9c6.1,1.3,10.6,7.5,10.7,14.8v0.9c-0.1,7.7-5,14.2-11.4,15.2C169.9,322.8,167.5,323.2,165,323.4
				 M177.5,323.1L177.5,323.1l0.2-0.1c2.4-1.2,4.3-3.2,5.3-5.6c1.3-2.7,2-5.6,2.1-8.5c0.2-3.4-0.2-6.8-1.1-10.1
				c-0.9-3-2.6-5.7-5.1-7.6l-0.2-0.1l-0.2-0.1c-0.6-0.2-9.8-5.3-16.2-4.8c-1.5,0.1-7,0.4-7.7,1c-1.8,1.5-3.9,6.5-4.5,12.1
				c-0.4,4.2,2.3,19.8,4,22c2.8,3,3.4,4.7,11.3,4C165.5,325.4,177.2,323.2,177.5,323.1L177.5,323.1z"/>
			<path class="st0" d="M163.5,374.9c-4.1,0.3-8,0.2-9-0.9c-3.4-3.9-3.8-22.9,0.3-25.8c0.7-0.4,1.6-0.6,2.4-0.6
				c3.5-0.3,9.6,0.7,13.9,1.5c5.7,1.2,9.9,6.2,10,12v0.8c0,6.1-4.5,11.3-10.5,12.3C168.4,374.4,165.9,374.7,163.5,374.9
				 M175.1,374.6h0.2c2.3-0.8,4.3-2.3,5.6-4.4c1.1-1.9,1-4.5,1.2-7c0.2-2.8-0.2-5.6-1.1-8.2c-0.8-2.5-2.5-4.7-4.7-6.1l-0.2-0.1h-0.2
				c-0.5-0.1-13.1-3-19-2.5c-1.1,0-2.1,0.3-3,0.8c-1.7,1.2-3.8,3.9-4.3,8.5c-0.3,5.1-0.3,10.1,0,15.2c0.3,3.9,3.7,6.8,7.6,6.5
				c0,0,0,0,0,0h0.2c1.7-0.2,3.8-0.5,6.4-0.7C164,376.5,174.9,374.7,175.1,374.6L175.1,374.6z"/>
			<path class="st0" d="M221.7,374.8c6.7-11.3,4.8-15.9,2.2-23.7C229.4,358.1,231.4,366.3,221.7,374.8z"/>
		</g>
	</g>
</g>
</svg>
