<?xml version="1.0" encoding="utf-8"?>
<!-- Generator: Adobe Illustrator 22.0.1, SVG Export Plug-In . SVG Version: 6.00 Build 0)  -->
<svg version="1.1" id="Ebene_1" xmlns="http://www.w3.org/2000/svg" xmlns:xlink="http://www.w3.org/1999/xlink" x="0px" y="0px"
	 viewBox="0 0 369.7 112.3" style="enable-background:new 0 0 369.7 112.3;" xml:space="preserve">
<style type="text/css">
	.st0{fill:#7D4C32;}
	.st1{fill:#F29B1F;}
</style>
<title>Element 1</title>
<g id="Ebene_2_1_">
	<g id="Ebene_1-2">
		<path class="st0" d="M39.1,61.2c-0.8,0-1.5-0.1-2.2-0.4c-0.6-0.2-1.1-0.4-1.6-0.8c-0.4-0.3-0.5-0.6-0.4-0.8s0.4-0.4,1.1-0.4
			c1,0,2.5-0.7,4.4-2.2c2.3-1.7,4.4-3.6,6.4-5.7c2.3-2.4,4.7-5,7.1-8c2.4-2.9,4.6-6,6.6-9.2c1.9-2.9,3.5-6,4.9-9.2
			c1.1-2.6,1.8-5.3,1.9-8.1c0-0.9-0.5-1.3-1.4-1.3c-1.4,0-3.9,1-7.3,3.1c-4,2.6-7.9,5.4-11.5,8.5c-4.3,3.6-8.7,7.8-13.3,12.5
			S25,49,21.2,54.4c-3.7,5.1-6.8,10.6-9.4,16.4c-2.3,5.1-3.6,10.7-3.7,16.3c0,1.5,0.2,3,0.6,4.4c0.4,1.4,1.1,2.7,2.1,3.8
			c1.2,1.2,2.6,2.1,4.1,2.7c2.1,0.8,4.4,1.1,6.7,1c4.2,0,8.4-0.6,12.4-2c3.6-1.2,7.1-2.8,10.3-4.8c2.9-1.8,5.7-3.8,8.2-6.1
			c2.4-2.2,4.4-4.1,6-5.8s2.8-2.9,3.6-3.8s1.2-0.9,1.2-0.3c-0.2,1-0.6,2-1.2,2.9c-1,1.9-2.2,3.8-3.5,5.6c-1.7,2.4-3.5,4.6-5.5,6.8
			c-4.7,5.1-10.4,9.1-16.9,11.6c-3.5,1.3-7.2,2-11,2c-2.5-0.1-4.9-0.6-7.2-1.4c-3-1-5.9-2.5-8.3-4.6c-2.8-2.3-5.1-5.2-6.8-8.4
			c-2-4-3-8.5-2.9-13c0.1-5.3,1.3-10.5,3.6-15.3c2.6-5.7,5.7-11.1,9.3-16.2c3.8-5.4,8-10.5,12.6-15.3c4.3-4.6,8.9-8.9,13.8-12.9
			c4-3.3,8.2-6.3,12.6-8.9c3.9-2.2,6.9-3.4,9.2-3.4c1.1,0.2,2.2,0.6,3.2,1.2c1.7,0.9,3.3,1.9,4.8,3.1c1.6,1.3,3,2.8,4.3,4.4
			c1.2,1.4,1.9,3.2,1.9,5c-0.2,2.1-0.8,4.2-1.7,6.2c-1.3,2.9-2.8,5.8-4.4,8.6c-1.9,3.3-4.1,6.5-6.4,9.5c-2.3,3.1-4.9,6-7.7,8.7
			c-2.5,2.4-5.3,4.6-8.2,6.4C44.6,60.3,41.9,61.1,39.1,61.2z"/>
		<path class="st0" d="M70.5,85.2c-1.1-0.1-2.2-0.4-3.2-0.9c-3-1.4-5.4-3.6-7-6.5c-0.9-1.7-1.3-3.5-1.3-5.4c0-1.7,0.3-3.4,1-5
			c0.7-1.7,1.5-3.4,2.5-4.9c1.1-1.6,2.3-3.2,3.7-4.6c1.4-1.4,2.8-2.8,4.3-4.1c0.3-1.6,0.9-3.2,1.7-4.7c1.9-3.5,4.9-6.5,8.4-8.4
			c1.8-1,3.9-1.5,6-1.4c1,0.1,2,0.4,2.9,0.8c1.3,0.6,2.5,1.4,3.5,2.4c1.2,1.2,2.3,2.5,3.1,4c0.9,1.7,1.4,3.7,1.3,5.6
			c-0.1,3.8-1,7.5-2.6,11c-1.8,3.8-4,7.5-6.6,10.8c-2.4,3.2-5.3,5.9-8.6,8.2C76.2,84.1,73.3,85.2,70.5,85.2z M68.4,81.7
			c1.4,0,3.4-0.9,6-2.6c2.9-2,5.6-4.3,7.9-7c2.7-3.1,5-6.5,6.8-10.2c1.9-3.8,2.9-8,2.9-12.3c0-0.5,0-1.1-0.1-1.6
			c0-0.7-0.2-1.4-0.4-2c-0.2-0.6-0.5-1.2-1-1.7s-1.3-0.8-2-0.8c-1.2,0.1-2.4,0.7-3.2,1.6c-1.4,1.2-2.5,2.7-3.4,4.3
			c1.2,0.2,2.4,0.7,3.4,1.4c0.8,0.5,1.5,1.2,2,2c0.3,0.6,0.6,1.2,0.8,1.8c0.1,0.5,0,0.8-0.4,0.8c-0.2,0-0.4-0.1-0.5-0.3
			s-0.6-0.3-1.4-0.3c-1.2,0.2-2.3,0.6-3.2,1.4c-1.5,1.2-3,2.5-4.4,3.8l-0.1,1.1c0,0.5,0.1,1,0.2,1.5c0.1,0.3,0.2,0.7,0.2,1
			c0,0.4-0.3,0.6-1,0.5c-0.8-0.2-1.6-0.5-2.3-1c-2.3,2.6-4.4,5.5-6.2,8.5c-1.6,2.2-2.5,4.9-2.6,7.6c0,0.5,0.1,1.1,0.2,1.6
			C66.8,81.4,67.4,81.7,68.4,81.7L68.4,81.7z"/>
		<path class="st0" d="M133.4,15.9c1,0.1,2,0.3,2.9,0.8c1,0.6,2,1.2,2.8,2c0.7,0.6,1.3,1.4,1.7,2.3c0.4,0.6,0.3,1.4-0.2,1.9
			c-5.4,5.4-10.2,11.3-14.4,17.7c-4.6,6.8-8.8,13.8-12.6,21c3.4-0.1,6.8-0.6,10.1-1.6c3.2-0.9,6.3-2.5,8.9-4.6
			c0.9-0.6,1.3-1.1,1.3-1.4c0-0.4,0.2-0.8,0.5-1s0.6-0.1,0.7,0.4c0.2,0.6,0.3,1.3,0.2,2c-0.1,0.9-0.3,1.8-0.7,2.7
			c-0.4,1-1,1.8-1.8,2.4c-1.3,0.9-2.7,1.7-4.2,2.2c-1.9,0.7-3.9,1.3-5.9,1.6c-3.6,0.6-7.2,0.8-10.8,0.6c-0.2,0.2-0.3,0.5-0.4,0.8
			s-0.2,0.6-0.4,0.8c0.6,1.4,1.1,2.9,1.4,4.4c1.2,6.3,0.9,12.7-1,18.8c-1.1,3.7-2.6,7.3-4.3,10.7c-1.5,2.9-3.3,5.7-5.4,8.2
			c-1.9,2.2-3.6,3.4-5.2,3.7H96c-0.8,0-1.6-0.2-2.3-0.6c-0.9-0.4-1.8-0.9-2.6-1.5c-0.8-0.6-1.5-1.3-2.1-2c-0.5-0.6-0.8-1.4-0.8-2.2
			c0.1-7.1,1.5-14.1,4-20.7c2.8-8,6.1-15.8,9.8-23.4c-0.5-0.4-0.9-1-1.1-1.6c-0.1-0.4,0.8-0.9,2.8-1.5c2.9-5.7,5.9-11.1,8.9-16.2
			c2.7-4.7,5.6-9.2,8.8-13.5c2.3-3.2,4.7-6.3,7.3-9.3C130.9,17.1,132.4,15.9,133.4,15.9z M109.7,78.5c0-2.4-0.3-4.8-1-7.1
			c-3.3,6.9-6.2,14-8.6,21.3C98,99,97,103.9,97,107.6c0,0.4,0,0.7,0.1,1.1c1-0.2,2.3-1.2,3.7-3.2c1.6-2.3,3-4.8,4.1-7.4
			c1.3-3.2,2.5-6.4,3.4-9.7C109.2,85.2,109.7,81.8,109.7,78.5z"/>
		<path class="st0" d="M158.9,15.9c1,0.1,2,0.3,2.9,0.8c1,0.6,2,1.2,2.8,2c0.7,0.6,1.3,1.4,1.7,2.3c0.4,0.6,0.3,1.4-0.2,1.9
			c-5.4,5.4-10.2,11.3-14.4,17.7c-4.6,6.8-8.8,13.8-12.6,21c3.4-0.1,6.8-0.6,10.1-1.6c3.2-0.9,6.3-2.5,8.9-4.6
			c0.9-0.6,1.3-1.1,1.3-1.4c0-0.4,0.2-0.8,0.5-1s0.6-0.1,0.7,0.4c0.2,0.6,0.3,1.3,0.2,2c-0.1,0.9-0.3,1.8-0.7,2.7
			c-0.4,1-1,1.8-1.8,2.4c-1.3,0.9-2.7,1.7-4.2,2.2c-1.9,0.7-3.9,1.3-5.9,1.6c-3.6,0.6-7.2,0.8-10.8,0.6c-0.2,0.2-0.3,0.5-0.4,0.8
			s-0.2,0.6-0.4,0.8c0.6,1.4,1.1,2.9,1.4,4.4c1.2,6.3,0.9,12.7-1,18.8c-1.1,3.7-2.6,7.3-4.3,10.7c-1.5,2.9-3.3,5.7-5.4,8.2
			c-1.9,2.2-3.6,3.4-5.2,3.7h-0.6c-0.8,0-1.6-0.2-2.3-0.6c-0.9-0.4-1.8-0.9-2.6-1.5c-0.8-0.6-1.5-1.3-2.1-2
			c-0.5-0.6-0.8-1.4-0.8-2.2c0.1-7.1,1.5-14.1,4-20.7c2.8-8,6.1-15.8,9.8-23.4c-0.5-0.4-0.9-1-1.1-1.6c-0.1-0.4,0.8-0.9,2.8-1.5
			c2.9-5.7,5.9-11.1,8.9-16.2c2.7-4.7,5.6-9.2,8.8-13.5c2.3-3.2,4.7-6.3,7.3-9.3C156.4,17.1,158,15.9,158.9,15.9z M135.2,78.5
			c0-2.4-0.3-4.8-1-7.1c-3.3,6.9-6.2,14-8.6,21.3c-2.1,6.3-3.1,11.2-3.1,14.9c0,0.4,0,0.7,0.1,1.1c1-0.2,2.3-1.2,3.7-3.2
			c1.6-2.3,3-4.8,4.1-7.4c1.3-3.2,2.5-6.4,3.4-9.7C134.7,85.2,135.2,81.8,135.2,78.5z"/>
		<path class="st0" d="M189.3,62.6c-1.9,2.4-3.9,4.7-6.1,6.8c-2.4,2.5-4.9,4.8-7.5,7c-2.4,2.1-5,3.9-7.8,5.5
			c-2.1,1.3-4.6,2.1-7.1,2.2c-1.2-0.1-2.4-0.5-3.5-1.1c-1.4-0.7-2.7-1.7-3.8-2.8c-1.2-1.1-2.2-2.4-3.1-3.7c-0.8-1.2-1.2-2.6-1.3-4.1
			c0-2.3,0.4-4.5,1.3-6.6c0.9-2.3,2.1-4.5,3.4-6.6c1.4-2.2,2.9-4.2,4.6-6.1c1.7-1.9,3.3-3.5,4.9-5c1.3-1.2,2.7-2.3,4.1-3.4
			c0.7-0.6,1.6-1.1,2.5-1.3c1.3,0.1,2.6,0.4,3.7,1.1c1.3,0.7,2.5,1.6,3.5,2.6s1.9,2,2.7,3.2c0.6,0.8,1,1.8,1.1,2.8
			c-0.2,1.9-0.9,3.7-2,5.3c-2.9,4.1-6.6,7.5-10.8,10.1c-1.5,1.1-3.3,1.7-5.1,1.9c-0.6,0-1.1-0.1-1.6-0.4c-0.5-0.2-0.9-0.6-1.3-1
			c-0.7,1.5-1.4,3-1.9,4.6c-0.4,1.3-0.6,2.6-0.7,4c-0.1,0.7,0.1,1.4,0.4,2c0.3,0.4,0.6,0.7,1,0.7c2.5-0.1,5-0.8,7.2-2
			c2.7-1.4,5.2-3.1,7.6-5c2.5-2,4.9-4.1,7.2-6.4s4.3-4.4,5.9-6.3L189.3,62.6z M176.3,51.1c-1.2,0.1-2.3,0.6-3.2,1.4
			c-1.5,1.1-2.8,2.3-4,3.7c-1.5,1.7-2.8,3.4-4.1,5.2c-1.3,1.9-2.6,3.9-3.7,5.9c2.3-0.7,4.4-1.8,6.2-3.3c2.2-1.6,4.1-3.5,5.9-5.5
			c1.5-1.5,2.7-3.3,3.6-5.2C177.8,51.8,177.5,51.1,176.3,51.1z"/>
		<path class="st0" d="M223.4,62.6c-1.9,2.4-3.9,4.7-6.1,6.8c-2.4,2.5-4.9,4.8-7.5,7c-2.4,2.1-5,3.9-7.8,5.5
			c-2.1,1.3-4.6,2.1-7.1,2.2c-1.2-0.1-2.4-0.5-3.5-1.1c-1.4-0.7-2.7-1.7-3.8-2.8c-1.2-1.1-2.2-2.4-3.1-3.7c-0.8-1.2-1.2-2.6-1.3-4.1
			c0-2.3,0.4-4.5,1.3-6.6c0.9-2.3,2.1-4.5,3.4-6.6c1.4-2.2,2.9-4.2,4.6-6.1c1.7-1.9,3.3-3.5,4.9-5c1.3-1.2,2.7-2.3,4.1-3.4
			c0.7-0.6,1.6-1.1,2.5-1.3c1.3,0.1,2.6,0.4,3.7,1.1c1.3,0.7,2.5,1.6,3.5,2.6s1.9,2,2.7,3.2c0.6,0.8,1,1.8,1.1,2.8
			c-0.2,1.9-0.9,3.7-2,5.3c-2.9,4.1-6.6,7.5-10.8,10.1c-1.5,1.1-3.3,1.7-5.1,1.9c-0.6,0-1.1-0.1-1.6-0.4c-0.5-0.2-0.9-0.6-1.3-1
			c-0.7,1.5-1.4,3-1.9,4.6c-0.4,1.3-0.6,2.6-0.7,4c-0.1,0.7,0.1,1.4,0.4,2c0.3,0.4,0.6,0.7,1,0.7c2.5-0.1,5-0.8,7.2-2
			c2.7-1.4,5.2-3.1,7.6-5c2.5-2,4.9-4.1,7.2-6.4s4.3-4.4,5.9-6.3L223.4,62.6z M210.5,51.1c-1.2,0.1-2.3,0.6-3.2,1.4
			c-1.5,1.1-2.8,2.3-4,3.7c-1.5,1.7-2.8,3.4-4.1,5.2c-1.3,1.9-2.6,3.9-3.7,5.9c2.3-0.7,4.4-1.8,6.2-3.3c2.2-1.6,4.1-3.5,5.9-5.5
			c1.5-1.5,2.7-3.3,3.6-5.2C211.9,51.8,211.7,51.1,210.5,51.1L210.5,51.1z"/>
		<path class="st1" d="M271.4,83.4c-0.1,0.8,0.1,1.6,0.4,2.3c0.2,0.4,0.4,0.6,0.8,0.8c0.3,0.1,0.6,0.3,0.8,0.5
			c0.3,0.3,0.4,0.7,0.4,1.1c0,0.9-0.7,1.3-2,1.2c-1.5-0.1-3-0.6-4.3-1.3c-1.6-0.8-3.1-2-4.3-3.4c-1.3-1.4-2-3.3-2-5.2
			c0.1-2.1,0.4-4.2,0.9-6.3c0.6-2.5,1.4-5.2,2.4-8.2s2.1-5.9,3.4-8.9s2.5-5.9,3.8-8.5c-2.2,2.6-4.8,5.6-7.6,9.1s-5.8,7.2-8.8,11.1
			s-5.9,7.8-8.8,11.6s-5.5,7.5-7.7,10.8s-4.1,6.2-5.5,8.6s-2.1,4-2.1,4.8c0,1.7-0.5,2.5-1.6,2.6c-1.3,0-2.5-0.5-3.4-1.4
			c-1.3-1.2-2.5-2.5-3.4-4c-1-1.5-1.5-3.2-1.6-5c0.2-2.3,0.9-4.5,1.9-6.5c1.3-2.9,3-6.3,5.1-10.2s4.5-8.2,7.2-12.7s5.4-9.2,8.2-13.8
			s5.5-9.3,8.2-13.8s5.1-8.7,7.2-12.5s3.8-7.1,5.1-9.8c1-1.8,1.7-3.8,1.9-5.9c0.1-0.9-0.3-1.9-1-2.5c-1-0.7-2.2-1-3.4-0.9
			c-3,0.1-5.9,0.7-8.6,2c-3.1,1.5-6.1,3.3-8.8,5.4c-5.8,4.6-10.8,10-15,16.1c-1.8,2.6-3.4,5.3-4.7,8.2c-1,2.1-1.6,4.4-1.7,6.7
			c-0.1,0.8,0.1,1.6,0.6,2.2c0.3,0.4,0.8,0.6,1.3,0.7c0.4,0.1,0.9,0.2,1.3,0.4c0.4,0.1,0.7,0.6,0.6,1c0,0.9-0.7,1.3-2,1.4
			c-1.5,0-3-0.4-4.3-1.1c-1.7-0.9-3.2-2.1-4.3-3.7c-1.4-1.7-2.1-3.9-2-6.1c0.1-2.6,0.7-5.3,1.7-7.7c1.2-3.1,2.7-6,4.6-8.7
			c2-3.1,4.3-5.9,6.8-8.6c2.6-2.8,5.5-5.3,8.6-7.4c3-2.1,6.2-3.9,9.6-5.2c3.2-1.3,6.6-2,10-2c2.3,0,4.6,0.5,6.7,1.5
			c4.3,1.8,8,4.7,10.8,8.4c1.1,1.3,1.7,3,1.8,4.7c-0.1,3-0.9,6-2.2,8.7c-1.6,3.8-3.5,7.5-5.5,11.1c-2.2,4-4.8,8.2-7.6,12.7
			s-5.7,9-8.5,13.5s-5.5,9-8,13.4c-2.3,4.1-4.4,8.3-6.2,12.6c1.9-2.9,4.2-6.2,6.8-9.8s5.3-7.5,8.2-11.3s5.7-7.7,8.6-11.4
			s5.6-7,8.1-9.9c2.1-2.5,4.3-4.8,6.7-7c1.9-1.8,3.4-2.7,4.3-2.7h0.2c0.7,0,1.3,0.1,1.9,0.4c1.8,0.6,3.3,1.8,4.4,3.4
			c1,1.3,1.6,2.9,1.7,4.5c-0.2,1.1-0.6,2.2-1.2,3.2c-0.8,1.6-1.8,3.5-3,5.8s-2.5,4.8-4,7.5s-2.8,5.5-4,8.3c-1.2,2.7-2.2,5.4-3,8.2
			C271.8,78.8,271.5,81.1,271.4,83.4z"/>
		<path class="st1" d="M322.6,62.6c-1.9,2.4-3.9,4.7-6.1,6.8c-2.4,2.5-4.9,4.8-7.5,7c-2.4,2.1-5,3.9-7.8,5.5
			c-2.1,1.3-4.6,2.1-7.1,2.2c-1.2-0.1-2.4-0.5-3.5-1.1c-1.4-0.7-2.7-1.7-3.8-2.8c-1.2-1.1-2.2-2.4-3.1-3.7c-0.8-1.2-1.2-2.6-1.3-4.1
			c0-2.3,0.4-4.5,1.3-6.6c0.9-2.3,2.1-4.5,3.4-6.6c1.4-2.2,2.9-4.2,4.6-6.1c1.7-1.9,3.3-3.5,4.9-5c1.3-1.2,2.7-2.3,4.1-3.4
			c0.7-0.6,1.6-1.1,2.5-1.3c1.3,0.1,2.6,0.4,3.7,1.1c1.3,0.7,2.5,1.6,3.5,2.6s1.9,2,2.7,3.2c0.6,0.8,1,1.8,1.1,2.8
			c-0.2,1.9-0.9,3.7-2,5.3c-2.9,4.1-6.6,7.5-10.8,10.1c-1.5,1.1-3.3,1.7-5.1,1.9c-0.6,0-1.1-0.1-1.6-0.4c-0.5-0.2-0.9-0.6-1.3-1
			c-0.7,1.5-1.4,3-1.9,4.6c-0.4,1.3-0.6,2.6-0.7,4c-0.1,0.7,0.1,1.4,0.4,2c0.3,0.4,0.6,0.7,1,0.7c2.5-0.1,5-0.8,7.2-2
			c2.7-1.4,5.2-3.1,7.6-5c2.5-2,4.9-4.1,7.2-6.4c2.3-2.3,4.3-4.4,5.9-6.3L322.6,62.6z M309.6,51.1c-1.2,0.1-2.3,0.6-3.2,1.4
			c-1.5,1.1-2.8,2.3-4,3.7c-1.5,1.7-2.8,3.4-4.1,5.2c-1.3,1.9-2.6,3.9-3.7,5.9c2.3-0.7,4.4-1.8,6.2-3.3c2.2-1.6,4.1-3.5,5.9-5.5
			c1.5-1.5,2.7-3.3,3.6-5.2C311.1,51.8,310.8,51.1,309.6,51.1z"/>
		<path class="st1" d="M364,18.8c1.2,0.2,2.2,0.9,2.9,1.9c0.9,1.1,1.7,2.4,2.2,3.7c0.5,1.1,0.7,2.3,0.5,3.5c-0.2,1-1,1.5-2.3,1.3
			c-1,0-2-0.2-2.9-0.5c-0.8-0.2-1.7-0.5-2.8-0.8s-2.5-0.7-4.2-1.1s-4.1-0.8-7-1.2c-3.9,5.8-7.5,11.8-10.8,17.9
			c-3.5,6.3-6.6,12.5-9.3,18.6c-2.5,5.6-4.7,11.3-6.5,17.1c-1.6,5.3-2.5,9.7-2.5,13.2c0,1,0.1,1.5,0.4,1.6s0.4,0.5,0.4,1.1
			s-0.5,0.9-1.4,0.7c-1.1-0.3-2.2-0.7-3.1-1.4c-1.2-0.9-2.3-2-3.1-3.3c-0.9-1.6-1.4-3.4-1.4-5.2c0.1-4.4,0.9-8.7,2.2-12.9
			c1.6-5.4,3.6-10.7,5.8-15.8c2.4-5.6,5-11.2,8-16.9s6-11,9-16c-5-0.5-9.3-0.8-12.8-1s-6.4-0.4-8.7-0.5s-4-0.2-5.2-0.2
			c-0.8,0-1.6,0-2.4-0.1c-0.4,0-0.8-0.1-1.1-0.3c-0.3-0.2-0.5-0.4-0.7-0.5c-0.2-0.2-0.4-0.5-0.5-0.8c0-0.4,1.1-0.7,3.2-1
			s4.9-0.5,8.3-0.7s7.1-0.4,11.3-0.5l12.3-0.3c1.8-2.7,3.5-5.2,5.1-7.4s3.2-4.2,4.6-5.8c1.2-1.4,2.4-2.6,3.8-3.8
			c0.7-0.8,1.7-1.3,2.8-1.4c1.2,0,2.4,0.3,3.5,0.8c1,0.4,1.9,1,2.6,1.8c0.6,0.6,1.1,1.3,1.4,2.1c0.2,0.5,0.2,1.1-0.1,1.6
			c-1.8,1.7-3.4,3.6-5,5.5c-1.9,2.2-3.6,4.4-5.2,6.8c1.8,0,3.5,0,5,0.1S363.1,18.7,364,18.8z"/>
	</g>
</g>
</svg>
