<?xml version="1.0" encoding="utf-8"?>
<!-- Generator: Adobe Illustrator 22.0.1, SVG Export Plug-In . SVG Version: 6.00 Build 0)  -->
<svg version="1.1" id="Ebene_1" xmlns="http://www.w3.org/2000/svg" xmlns:xlink="http://www.w3.org/1999/xlink" x="0px" y="0px"
	 viewBox="0 0 325.6 95.2" style="enable-background:new 0 0 325.6 95.2;" xml:space="preserve">
<style type="text/css">
	.st0{fill:#7D4C32;}
	.st1{fill:#F29B1F;}
	.st2{fill:#F3F2F3;}
	.st3{opacity:0.5;fill:#492E1B;enable-background:new    ;}
	.st4{fill:#F3BC7E;}
	.st5{fill:#FFFFFF;}
</style>
<title>Element 2</title>
<g id="Ebene_2_1_">
	<g id="Ebene_1-2">
		<path class="st0" d="M29.7,56.6c-0.6,0-1.2-0.1-1.7-0.3l-1.2-0.6c-0.3-0.2-0.4-0.5-0.3-0.6c0.2-0.2,0.5-0.3,0.8-0.3
			c1.3-0.2,2.5-0.7,3.4-1.6c1.7-1.3,3.3-2.7,4.8-4.3c1.8-1.8,3.5-3.8,5.4-6.1c1.8-2.2,3.5-4.6,5-7c1.4-2.2,2.6-4.6,3.7-7
			c0.8-1.9,1.3-4,1.4-6.1c0-0.7-0.4-1-1.1-1c-1.1,0-2.9,0.8-5.5,2.4c-3.1,1.9-6,4-8.7,6.4c-3.2,2.7-6.6,5.9-10.1,9.5
			c-3.5,3.6-6.7,7.4-9.5,11.5c-2.8,3.9-5.2,8-7.1,12.4c-1.8,3.9-2.7,8.1-2.8,12.3c0,1.1,0.1,2.2,0.5,3.3c0.3,1.1,0.8,2.1,1.6,2.9
			c0.9,0.9,1.9,1.6,3.1,2c1.6,0.6,3.3,0.8,5,0.8c3.2,0,6.4-0.5,9.4-1.5c2.7-0.9,5.3-2.1,7.8-3.6c2.2-1.3,4.3-2.9,6.2-4.6
			c1.8-1.6,3.3-3.1,4.5-4.4s2.1-2.2,2.7-2.9s0.9-0.7,0.9-0.2c-0.2,0.8-0.5,1.5-0.9,2.2c-0.7,1.5-1.6,2.9-2.6,4.2
			c-1.3,1.8-2.7,3.6-4.2,5.2c-1.7,1.9-3.6,3.6-5.7,5c-2.2,1.6-4.6,2.8-7.1,3.8c-2.7,1-5.5,1.5-8.3,1.5c-1.8,0-3.7-0.4-5.4-1
			c-2.3-0.7-4.4-1.9-6.3-3.4c-2.1-1.8-3.9-4-5.2-6.4c-1.6-3-2.3-6.4-2.2-9.8c0.1-4,1-8,2.7-11.6c2-4.3,4.3-8.4,7-12.3
			c2.9-4.1,6.1-8,9.6-11.6c3.3-3.4,6.8-6.7,10.4-9.8c3-2.5,6.2-4.8,9.6-6.8c2.9-1.7,5.2-2.5,6.9-2.5c0.9,0.2,1.7,0.5,2.5,0.9
			c1.3,0.7,2.5,1.5,3.6,2.4c1.2,1,2.3,2.1,3.3,3.3c0.9,1,1.5,2.4,1.5,3.8c-0.1,1.6-0.5,3.2-1.3,4.7c-1,2.2-2.1,4.4-3.4,6.5
			c-1.5,2.5-3.1,4.9-4.9,7.2c-1.8,2.4-3.8,4.6-5.9,6.6c-1.9,1.8-3.9,3.5-6.2,4.8C33.7,55.9,31.7,56.5,29.7,56.6z"/>
		<path class="st0" d="M53.5,74.7c-0.9,0-1.7-0.2-2.5-0.7c-1-0.5-2-1.2-2.9-1.9c-1-0.8-1.9-1.8-2.5-3c-0.7-1.3-1-2.7-1-4.1
			c0-1.3,0.2-2.6,0.7-3.8c0.5-1.3,1.1-2.5,1.9-3.7c0.8-1.2,1.7-2.4,2.8-3.4c1.1-1.1,2.1-2.1,3.2-3.1c0.2-1.2,0.7-2.4,1.3-3.5
			c0.7-1.3,1.6-2.5,2.7-3.6c1.1-1.1,2.3-2,3.7-2.8c1.4-0.7,2.9-1.1,4.5-1.1c0.8,0.1,1.5,0.3,2.2,0.6c1,0.5,1.9,1.1,2.7,1.8
			c0.9,0.9,1.7,1.9,2.3,3c0.7,1.3,1,2.7,1,4.2c-0.1,2.9-0.8,5.7-2,8.3c-1.3,2.9-3,5.7-5,8.2c-1.8,2.4-4,4.5-6.5,6.2
			C58.2,73.8,55.9,74.6,53.5,74.7z M52,72.1c1,0,2.5-0.6,4.5-2c2.2-1.5,4.2-3.3,5.9-5.3c2.1-2.3,3.8-5,5.2-7.8
			c1.5-2.9,2.2-6.1,2.2-9.3v-1.2c0-0.5-0.1-1-0.3-1.5c-0.2-0.5-0.4-0.9-0.8-1.3c-0.4-0.4-0.9-0.6-1.5-0.6c-0.9,0.1-1.8,0.5-2.5,1.2
			c-1,0.9-1.9,2.1-2.5,3.3c0.9,0.2,1.8,0.5,2.5,1.1c1,0.7,1.8,1.7,2.1,2.9c0.1,0.4,0,0.6-0.3,0.6c-0.2,0-0.3-0.1-0.4-0.2
			c-0.1-0.2-0.4-0.2-1-0.2c-0.9,0.1-1.7,0.5-2.4,1.1c-1.2,0.9-2.3,1.8-3.3,2.9l-0.1,0.8c0,0.4,0,0.7,0.1,1.1
			c0.1,0.3,0.1,0.5,0.1,0.8c0,0.3-0.2,0.4-0.7,0.4c-0.6-0.1-1.2-0.4-1.7-0.7c-1.7,2-3.3,4.2-4.7,6.4c-1.2,1.7-1.9,3.7-2,5.8
			c0,0.4,0.1,0.8,0.2,1.2C51,72,51.5,72.1,52,72.1L52,72.1z"/>
		<path class="st0" d="M101.1,22.3c0.8,0,1.5,0.2,2.2,0.6c0.8,0.4,1.5,0.9,2.1,1.5c0.5,0.5,1,1.1,1.3,1.7c0.3,0.4,0.2,1-0.1,1.4
			c-4,4.1-7.7,8.6-10.9,13.4c-3.4,5.1-6.6,10.4-9.5,15.9c2.6-0.1,5.1-0.5,7.6-1.2c2.4-0.7,4.7-1.9,6.7-3.5c0.7-0.5,1-0.8,1-1.1
			c0-0.3,0.2-0.5,0.4-0.7c0.2-0.2,0.4-0.1,0.5,0.3c0.1,0.5,0.2,1,0.1,1.5c0,0.7-0.2,1.4-0.5,2c-0.3,0.7-0.8,1.3-1.4,1.8
			c-1,0.7-2.1,1.3-3.2,1.7c-1.4,0.5-2.9,0.9-4.4,1.2c-2.7,0.5-5.5,0.6-8.2,0.5l-0.3,0.6l-0.3,0.6c0.5,1.1,0.8,2.2,1,3.4
			c0.9,4.7,0.6,9.6-0.8,14.2c-0.9,2.8-1.9,5.5-3.2,8.1c-1.1,2.2-2.5,4.3-4.1,6.2c-1.5,1.7-2.8,2.6-3.9,2.8h-0.5
			c-0.6,0-1.2-0.2-1.7-0.5c-0.7-0.3-1.4-0.7-2-1.1c-0.6-0.4-1.2-0.9-1.6-1.5c-0.4-0.5-0.6-1.1-0.6-1.7c0.1-5.4,1.1-10.7,3-15.7
			c2.2-6,4.6-11.9,7.4-17.7c-0.4-0.3-0.7-0.7-0.9-1.2c-0.1-0.3,0.6-0.7,2.1-1.1c2.2-4.3,4.4-8.4,6.8-12.3s4.5-7.3,6.6-10.3
			c1.7-2.4,3.5-4.8,5.5-7C99.3,23.1,100.4,22.3,101.1,22.3z M83.2,69.6c0-1.8-0.2-3.6-0.7-5.4C80,69.4,77.8,74.8,76,80.3
			c-1.4,3.6-2.2,7.4-2.4,11.3c0,0.4,0,0.7,0.1,0.8c0.8-0.1,1.7-0.9,2.8-2.5c1.2-1.8,2.3-3.6,3.1-5.6c1-2.4,1.9-4.8,2.5-7.3
			C82.8,74.6,83.2,72.1,83.2,69.6z"/>
		<path class="st0" d="M120.5,22.3c0.8,0,1.5,0.2,2.2,0.6c0.8,0.4,1.5,0.9,2.1,1.5c0.5,0.5,1,1.1,1.3,1.7c0.3,0.4,0.2,1-0.1,1.4
			c-4,4.1-7.7,8.6-10.9,13.4c-3.4,5.1-6.6,10.4-9.5,15.9c2.6-0.1,5.1-0.5,7.6-1.2c2.4-0.7,4.7-1.9,6.7-3.5c0.7-0.5,1-0.8,1-1.1
			c0-0.3,0.2-0.5,0.4-0.7c0.2-0.2,0.4-0.1,0.5,0.3c0.1,0.5,0.2,1,0.1,1.5c0,0.7-0.2,1.4-0.5,2c-0.3,0.7-0.8,1.3-1.4,1.8
			c-1,0.7-2.1,1.3-3.2,1.7c-1.4,0.5-2.9,0.9-4.4,1.2c-2.7,0.5-5.5,0.6-8.2,0.5l-0.3,0.6l-0.3,0.6c0.5,1.1,0.8,2.2,1,3.4
			c0.9,4.7,0.6,9.6-0.8,14.2c-0.9,2.8-1.9,5.5-3.2,8.1c-1.1,2.2-2.5,4.3-4.1,6.2c-1.5,1.7-2.8,2.6-3.9,2.8h-0.5
			c-0.6,0-1.2-0.2-1.7-0.5c-0.7-0.3-1.4-0.7-2-1.1c-0.6-0.4-1.1-0.9-1.6-1.5c-0.4-0.5-0.6-1.1-0.6-1.7c0.1-5.4,1.1-10.7,3-15.7
			c2.2-6,4.6-11.9,7.4-17.7c-0.4-0.3-0.7-0.7-0.9-1.2c-0.1-0.3,0.6-0.7,2.1-1.1c2.2-4.3,4.4-8.4,6.8-12.3s4.5-7.3,6.6-10.3
			c1.7-2.4,3.5-4.8,5.5-7C118.6,23.1,119.7,22.3,120.5,22.3z M102.5,69.6c0-1.8-0.2-3.6-0.7-5.4c-2.5,5.2-4.7,10.6-6.5,16.1
			c-1.4,3.6-2.2,7.4-2.4,11.3c0,0.4,0,0.7,0.1,0.8c0.8-0.1,1.7-0.9,2.8-2.5c1.2-1.8,2.3-3.6,3.1-5.6c1-2.4,1.9-4.8,2.5-7.3
			C102.1,74.6,102.5,72.1,102.5,69.6z"/>
		<path class="st0" d="M143.4,57.6c-1.3,1.6-2.8,3.3-4.6,5.2c-1.8,1.9-3.7,3.6-5.7,5.3c-1.8,1.6-3.8,3-5.9,4.2
			c-1.6,1-3.5,1.6-5.4,1.7c-0.9-0.1-1.8-0.3-2.6-0.8c-1.1-0.5-2.1-1.2-2.9-2.1c-0.9-0.8-1.7-1.8-2.3-2.8c-0.6-0.9-0.9-2-1-3.1
			c0-1.7,0.3-3.4,1-5c0.7-1.7,1.6-3.4,2.6-5c1.1-1.6,2.2-3.2,3.5-4.6c1.3-1.4,2.5-2.7,3.7-3.8c1-0.9,2-1.8,3.1-2.6
			c0.6-0.5,1.2-0.8,1.9-1c1,0,2,0.3,2.8,0.8c1,0.5,1.9,1.2,2.7,2c0.8,0.7,1.5,1.6,2,2.5c0.4,0.6,0.7,1.3,0.8,2.1
			c-0.1,1.5-0.6,2.8-1.5,4c-1.1,1.6-2.3,3-3.7,4.3c-1.3,1.3-2.8,2.4-4.4,3.4c-1.2,0.8-2.5,1.3-3.9,1.4c-0.4,0-0.8-0.1-1.2-0.3
			c-0.4-0.2-0.7-0.4-1-0.7c-0.6,1.1-1,2.3-1.4,3.5c-0.3,1-0.5,2-0.5,3c0,0.5,0.1,1,0.3,1.5c0.2,0.3,0.5,0.5,0.8,0.5
			c1.9-0.1,3.7-0.6,5.4-1.5c2-1.1,4-2.4,5.8-3.8c1.9-1.5,3.7-3.1,5.4-4.9c1.7-1.7,3.2-3.3,4.5-4.8L143.4,57.6z M133.6,48.8
			c-0.9,0.1-1.8,0.4-2.5,1c-1.1,0.8-2.1,1.7-3,2.8c-1,1.2-2.1,2.5-3.1,3.9c-1,1.4-2,2.9-2.8,4.5c1.7-0.5,3.3-1.4,4.7-2.5
			c1.6-1.2,3.1-2.6,4.5-4.1c1.1-1.2,2-2.5,2.7-3.9C134.7,49.4,134.5,48.8,133.6,48.8z"/>
		<path class="st0" d="M169.3,57.6c-1.3,1.6-2.8,3.3-4.6,5.2c-1.8,1.9-3.7,3.6-5.7,5.3c-1.8,1.6-3.8,3-5.9,4.2
			c-1.6,1-3.5,1.6-5.4,1.7c-0.9-0.1-1.8-0.3-2.6-0.8c-1.1-0.5-2.1-1.2-2.9-2.1c-0.9-0.8-1.7-1.8-2.3-2.8c-0.6-0.9-0.9-2-1-3.1
			c0-1.7,0.3-3.4,1-5c0.7-1.7,1.6-3.4,2.6-5c1.1-1.6,2.2-3.2,3.5-4.6c1.3-1.4,2.5-2.7,3.7-3.8c1-0.9,2-1.8,3.1-2.6
			c0.6-0.5,1.2-0.8,1.9-1c1,0,2,0.3,2.8,0.8c1,0.5,1.9,1.2,2.7,2c0.8,0.7,1.5,1.6,2,2.5c0.4,0.6,0.7,1.3,0.8,2.1
			c-0.1,1.5-0.6,2.8-1.5,4c-1.1,1.6-2.3,3-3.7,4.3c-1.3,1.3-2.8,2.4-4.4,3.4c-1.2,0.8-2.5,1.3-3.9,1.4c-0.4,0-0.8-0.1-1.2-0.3
			c-0.4-0.2-0.7-0.4-1-0.7c-0.6,1.1-1,2.3-1.4,3.5c-0.3,1-0.5,2-0.5,3c0,0.5,0.1,1,0.3,1.5c0.2,0.3,0.5,0.5,0.8,0.5
			c1.9-0.1,3.7-0.6,5.4-1.5c2-1.1,4-2.4,5.8-3.8c1.9-1.5,3.7-3.1,5.4-4.9c1.7-1.7,3.2-3.3,4.5-4.8L169.3,57.6z M159.5,48.8
			c-0.9,0.1-1.8,0.4-2.5,1c-1.1,0.8-2.1,1.7-3,2.8c-1,1.2-2.1,2.5-3.1,3.9c-1,1.4-2,2.9-2.8,4.5c1.7-0.5,3.3-1.4,4.7-2.5
			c1.6-1.2,3.1-2.6,4.5-4.1c1.1-1.2,2-2.5,2.7-3.9C160.6,49.4,160.4,48.8,159.5,48.8z"/>
		<path class="st1" d="M205.6,73.3c0,0.6,0.1,1.2,0.3,1.7c0.1,0.2,0.4,0.5,0.6,0.6c0.2,0.1,0.4,0.2,0.6,0.4c0.2,0.3,0.3,0.6,0.3,0.9
			c0,0.7-0.5,1-1.5,0.9c-1.2-0.1-2.3-0.5-3.3-1c-1.3-0.6-2.4-1.5-3.3-2.6c-1-1.1-1.5-2.5-1.5-3.9c0-1.6,0.3-3.2,0.7-4.8
			c0.5-1.9,1.1-4,1.8-6.2s1.6-4.5,2.5-6.8s1.9-4.4,2.9-6.4c-1.7,1.9-3.6,4.2-5.8,6.9s-4.4,5.5-6.6,8.4s-4.5,5.9-6.7,8.8
			s-4.1,5.7-5.9,8.2s-3.1,4.7-4.2,6.5c-0.8,1.1-1.3,2.3-1.6,3.6c0,1.3-0.4,1.9-1.2,2c-0.9,0-1.8-0.4-2.5-1.1c-1-0.9-1.8-1.9-2.5-3
			c-0.8-1.1-1.2-2.4-1.2-3.8c0.2-1.7,0.7-3.4,1.5-4.9c1-2.2,2.3-4.8,3.9-7.8c1.6-3,3.4-6.2,5.4-9.6c2-3.4,4.1-6.9,6.2-10.5
			s4.2-7,6.2-10.4s3.8-6.6,5.4-9.4s2.9-5.4,3.9-7.4c0.8-1.4,1.3-2.9,1.5-4.5c0-0.7-0.2-1.4-0.7-1.9c-0.7-0.6-1.6-0.8-2.5-0.7
			c-2.3,0-4.5,0.5-6.5,1.5c-2.3,1.1-4.6,2.5-6.6,4.1c-2.2,1.7-4.3,3.6-6.2,5.7c-1.9,2-3.6,4.1-5.2,6.4c-1.4,1.9-2.6,4-3.5,6.2
			c-0.8,1.6-1.2,3.3-1.3,5.1c-0.1,0.6,0.1,1.2,0.5,1.7c0.2,0.3,0.6,0.5,1,0.5c0.4,0.1,0.7,0.2,1,0.3s0.5,0.3,0.5,0.8
			c0,0.7-0.5,1-1.5,1c-1.2,0-2.3-0.3-3.3-0.9c-1.3-0.7-2.4-1.6-3.3-2.8c-1-1.3-1.6-2.9-1.5-4.6c0.1-2,0.5-4,1.3-5.8
			c0.9-2.3,2-4.5,3.4-6.6c1.6-2.3,3.3-4.5,5.2-6.5c2-2.1,4.2-4,6.5-5.6c2.3-1.6,4.7-2.9,7.3-3.9c2.4-1,5-1.5,7.6-1.5
			c1.7,0,3.4,0.4,5,1.1c1.7,0.8,3.2,1.7,4.7,2.8c1.3,1,2.5,2.2,3.5,3.6c0.8,1,1.3,2.2,1.4,3.5c-0.1,2.3-0.6,4.5-1.6,6.6
			c-1.2,2.9-2.6,5.7-4.2,8.4c-1.7,3-3.6,6.2-5.8,9.6s-4.3,6.8-6.4,10.2s-4.1,6.8-6,10.2c-1.8,3.1-3.4,6.3-4.7,9.6
			c1.5-2.2,3.2-4.7,5.1-7.4s4-5.6,6.2-8.6s4.3-5.8,6.5-8.6s4.2-5.3,6.1-7.5s3.6-3.9,5-5.3s2.5-2,3.3-2h0.2c0.5,0,1,0.1,1.5,0.3
			c1.3,0.5,2.5,1.4,3.3,2.6c0.8,1,1.2,2.2,1.3,3.4c-0.2,0.9-0.5,1.7-0.9,2.5c-0.6,1.2-1.4,2.7-2.3,4.4l-3,5.7
			c-1.1,2.1-2.1,4.1-3,6.3c-0.9,2-1.6,4.1-2.3,6.2C206,69.8,205.6,71.5,205.6,73.3z"/>
		<path class="st1" d="M244.4,57.6c-1.3,1.6-2.8,3.3-4.6,5.2c-1.8,1.9-3.7,3.6-5.7,5.3c-1.8,1.6-3.8,3-5.9,4.2
			c-1.6,1-3.5,1.6-5.4,1.7c-0.9-0.1-1.8-0.3-2.6-0.8c-1.1-0.5-2.1-1.2-2.9-2.1c-0.9-0.8-1.7-1.8-2.3-2.8c-0.6-0.9-0.9-2-1-3.1
			c0-1.7,0.3-3.4,1-5c0.7-1.7,1.6-3.4,2.6-5c1.1-1.6,2.2-3.2,3.5-4.6c1.3-1.4,2.5-2.7,3.7-3.8c1-0.9,2-1.8,3.1-2.6
			c0.6-0.5,1.2-0.8,1.9-1c1,0,2,0.3,2.8,0.8c1,0.5,1.9,1.2,2.7,2c0.8,0.7,1.5,1.6,2,2.5c0.4,0.6,0.7,1.3,0.8,2.1
			c-0.1,1.5-0.6,2.8-1.5,4c-1.1,1.6-2.3,3-3.7,4.3c-1.3,1.3-2.8,2.4-4.4,3.4c-1.2,0.8-2.5,1.3-3.9,1.4c-0.4,0-0.8-0.1-1.2-0.3
			c-0.4-0.2-0.7-0.4-1-0.7c-0.6,1.1-1,2.3-1.4,3.5c-0.3,1-0.5,2-0.5,3c0,0.5,0.1,1,0.3,1.5c0.2,0.3,0.5,0.5,0.8,0.5
			c1.9-0.1,3.7-0.6,5.4-1.5c2-1.1,4-2.4,5.8-3.8c1.9-1.5,3.7-3.1,5.4-4.9c1.7-1.7,3.2-3.3,4.5-4.8L244.4,57.6z M234.6,48.8
			c-0.9,0.1-1.8,0.4-2.5,1c-1.1,0.8-2.1,1.7-3,2.8c-1,1.2-2.1,2.5-3.1,3.9c-1,1.4-2,2.9-2.8,4.5c1.7-0.5,3.3-1.4,4.7-2.5
			c1.6-1.2,3.1-2.6,4.5-4.1c1.1-1.2,2-2.5,2.7-3.9C235.7,49.4,235.5,48.8,234.6,48.8z"/>
		<path class="st1" d="M275.8,24.4c0.9,0.2,1.7,0.7,2.2,1.4c0.7,0.8,1.3,1.8,1.7,2.8c0.4,0.8,0.5,1.8,0.4,2.7
			c-0.2,0.8-0.7,1.1-1.8,1c-0.7-0.1-1.5-0.2-2.2-0.4c-0.6-0.2-1.3-0.4-2.1-0.6c-0.8-0.2-1.9-0.5-3.2-0.8s-3.1-0.6-5.3-0.9
			c-2.8,4.2-5.6,8.7-8.2,13.5s-5,9.5-7,14.1c-1.9,4.2-3.6,8.5-4.9,12.9c-1.1,3.2-1.7,6.6-1.9,10c0,0.7,0.1,1.1,0.3,1.2
			c0.2,0.1,0.3,0.4,0.3,0.9c0,0.5-0.3,0.7-1,0.5c-0.8-0.2-1.6-0.5-2.3-1c-0.9-0.7-1.7-1.5-2.3-2.5c-0.7-1.2-1.1-2.5-1-3.9
			c0.1-3.3,0.7-6.6,1.7-9.8c1.2-4.1,2.7-8.1,4.4-12c1.8-4.2,3.8-8.5,6-12.8s4.5-8.4,6.8-12.1c-3.8-0.4-7-0.6-9.7-0.8
			s-4.9-0.3-6.6-0.4s-3-0.1-3.9-0.1c-0.6,0-1.2,0-1.8-0.1c-0.3,0-0.6-0.1-0.9-0.2c-0.2-0.2-0.4-0.3-0.5-0.4
			c-0.2-0.2-0.3-0.4-0.4-0.6c0-0.3,0.8-0.6,2.5-0.8s3.7-0.4,6.3-0.5s5.4-0.3,8.5-0.4s6.3-0.2,9.3-0.2c1.2-1.9,2.5-3.8,3.9-5.6
			c1.2-1.7,2.4-3.1,3.5-4.4c0.9-1,1.9-2,2.9-2.9c0.6-0.6,1.3-0.9,2.1-1c1.8,0,3.5,0.7,4.7,2c0.5,0.4,0.8,1,1,1.6
			c0.2,0.4,0.2,0.9-0.1,1.2c-1.2,1.2-2.5,2.6-3.8,4.1s-2.6,3.3-3.9,5.1h3.8C274.1,24.3,275,24.3,275.8,24.4z"/>
		<g id="logo_coffeenet">
			
				<ellipse transform="matrix(0.9871 -0.1599 0.1599 0.9871 2.2564 49.1685)" class="st0" cx="306.7" cy="10.6" rx="8.2" ry="10.6"/>
			<path class="st2" d="M307.9,18.4c0,0,4-1.9,0.3-6.5c-3-3.7-3.5-6.3-2.3-9.2c0,0-5.5,4.6,0.8,10.9
				C309.2,16.6,307.9,18.4,307.9,18.4z"/>
			<path class="st3" d="M308.6,21.1c4.5-0.7,7.4-5.9,6.5-11.7c-0.4-3.1-2-5.9-4.5-7.8c1.9,2.4,2.6,5.6,2.1,8.6
				c-0.3,2.9-2.4,5.4-5.2,6.2c-2,0.5-4.1,0.6-6.2,0.3c-0.3,0-0.6-0.1-0.9-0.3C302.3,19.7,305.4,21.6,308.6,21.1z"/>
			<path class="st1" d="M325.5,6.6c-0.2-0.5-0.6-1-1.1-1.2l0,0c-0.9-0.5-1.8-0.8-2.8-0.9c-0.1,0.6-0.3,1.1-0.8,1.5
				c0.1,0.1,0.2,0.2,0.2,0.4c0.3,1-0.9,2.2-3.2,3.4c-3.1,1.5-6.3,2.6-9.6,3.4c-0.5,0.1-1.1,0.2-1.6,0.4c-2.8,0.6-5.7,0.9-8.6,0.9
				c-2.7,0-4.6-0.5-4.9-1.5s1.8-2.6,5.6-4.3l0.1-1c-4.5,1.6-8.1,4.1-9.1,5.7l0,0c-0.3,0.5-0.4,1.1-0.3,1.7c0.7,2,5.1,2.8,11,2.4
				c3-0.3,5.9-0.7,8.8-1.4c2.9-0.7,5.7-1.6,8.4-2.7c0.4-0.2,0.9-0.4,1.3-0.6C323.5,10.8,326.1,8.5,325.5,6.6z"/>
			<path class="st1" d="M316.8,4.9c0-0.2,0-0.5,0.1-0.7c-1.2,0-2.6,0-3.8,0.1l0.4,0.7C314.8,4.9,316,4.9,316.8,4.9z"/>
			<path class="st4" d="M325.5,6.6c-0.2-0.5-0.6-1-1.1-1.2c2.5,2.8-1.7,5.4-7.8,7.7c-4.6,1.8-9.3,3-14.2,3.6
				c-14.6,1.6-12.8-3.2-12.8-3.3c-0.3,0.5-0.4,1.1-0.3,1.7c0.7,2,5.1,2.8,11,2.4c3-0.3,5.9-0.7,8.8-1.4c2.9-0.7,5.7-1.6,8.4-2.7
				c0.4-0.2,0.9-0.4,1.3-0.6C323.5,10.8,326.1,8.5,325.5,6.6z"/>
			<path id="_Pfad_" class="st4" d="M292.5,12.6c-5.1,4.4,11.4,3.8,16.8,1.1C297.5,16.3,290.5,14.9,292.5,12.6z"/>
			
				<ellipse transform="matrix(0.9955 -9.515081e-02 9.515081e-02 0.9955 1.0038 30.4169)" class="st0" cx="319.4" cy="4.7" rx="2.2" ry="1.6"/>
			<path class="st5" d="M317.7,5.3c0,0,0.6,0.7,1.3-0.3c0.3-0.6,1-1,1.7-1c0,0-1.2-0.8-2.1,0.8C318.2,5.5,317.7,5.3,317.7,5.3z"/>
		</g>
	</g>
</g>
</svg>
