<?xml version="1.0" encoding="utf-8"?>
<!-- Generator: Adobe Illustrator 21.0.2, SVG Export Plug-In . SVG Version: 6.00 Build 0)  -->
<svg version="1.1" id="Ebene_1" xmlns="http://www.w3.org/2000/svg" xmlns:xlink="http://www.w3.org/1999/xlink" x="0px" y="0px"
	 viewBox="0 0 500 376" style="enable-background:new 0 0 500 376;" xml:space="preserve">
<style type="text/css">
	.st0{fill:#FFFFFF;}
	.st1{fill:none;}
	.st2{fill:#1D1D1B;}
</style>
<g>
	<g>
		<path class="st0" d="M119.6,205.4c0.3-0.1,0.5-0.2,0.8-0.3c0,0,0,0,0.1,0L119.6,205.4z"/>
		<path d="M389.6,243.9c-7.6,3-15.2,5.9-22.9,8.7c-6.2,2.2-12.5,4.2-18.7,6.2c-3.3,1.1-6.6,2.2-9.9,3.3
			c-12.4,3.9-24.8,7.7-37.3,11.3l-16.7,4.7l-8.4,2.3l-2.1,0.6l-0.8,0.2l-0.1,0l-0.3,0.1l-0.5,0.1l-1.7,0.4l-2.6,0.6
			c-9.6,2.2-19,4.1-28.6,6c-1.7,0.3-3.4,0.7-5.1,1.1c-22.5,4.3-45.2,7.6-68,9.7c-2,0.2-4,0.3-6,0.4c-3.3,0.3-6.7,0.5-10,0.7
			c-6.1,0.4-12.1,1-18.2,1.3c-5.7,0.3-11.4,0.5-17.1,0.6l-8.5,0.1l-1.9,0l-0.4,0l-1.1-0.1l-4.3-0.3c-3-0.2-5.7-0.5-8.2-0.8
			c-2.6-0.2-5.3-0.6-7.9-1c-2.7-0.4-5.3-0.8-7.9-1.4c-2.6-0.5-5.1-1.2-7.6-1.8c-4.9-1.4-9.6-3-13.6-5.2c-4-2.1-7.4-4.6-9.3-7.2
			c-1.9-2.6-2.8-5-2.7-8.3c0.1-3.3,1.2-7.3,3.4-11.4c4.4-8.2,11.6-16.2,19.7-23.3c16.2-14.4,35.9-26,56-36.3
			c-0.3,0.1-0.5,0.2-0.8,0.3l0.8-0.3c0,0,0,0-0.1,0c7.3-2.8,14.4-5.7,21.5-8.8c1.1-5.8,2.5-11.6,4.1-17c-0.9,0.3-1.8,0.6-2.7,0.9
			c-9.7,3.1-19.3,6.2-29,8.9l-0.1,0l-0.7,0.3c-22.1,8.9-43.6,19.8-63.2,35.1c-9.7,7.7-19,16.7-26.2,28.7c-3.5,6-6.5,13.2-7.1,21.5
			c-0.8,8.3,1.8,17.7,6.8,24.5c4.9,6.9,11.2,11.4,17.4,14.9c6.2,3.5,12.5,5.9,18.7,7.6c3.1,0.9,6.2,1.7,9.3,2.3
			c3.1,0.7,6.2,1.3,9.3,1.7c3.1,0.5,6.2,0.9,9.3,1.2c3.2,0.4,6.3,0.6,9.1,0.7l4.4,0.2l1.1,0.1l0.5,0l1.3,0l0.3,0l2.2-0.1l8.9-0.3
			c5.9-0.2,11.9-0.6,17.8-1c9.7-0.7,19.3-1.8,28.9-3c2.1-0.3,4.3-0.4,6.4-0.7c1.5-0.2,3-0.5,4.5-0.7c21.9-3.1,43.6-7.1,65.1-11.9
			c4.5-1,9.1-2.3,13.6-3.4c6.9-1.7,13.9-3.3,20.6-5.1l4.1-1.1l0.1,0l1.4-0.4l1-0.3l2.1-0.6l8.4-2.6l16.7-5.3
			c9.5-3.1,19-6.2,28.5-9.5c3.6-1.2,7.1-2.5,10.7-3.8c9.1-3.2,18.1-6.4,27.1-9.9c9-3.5,17.9-7.2,26.8-11.2
			C395.8,254,392.5,249.5,389.6,243.9z"/>
		<path class="st1" d="M366.7,252.6c-6.2,2.2-12.5,4.2-18.7,6.2c-3.3,1.1-6.6,2.2-9.9,3.3c-12.4,3.9-24.8,7.7-37.3,11.3l-16.7,4.7
			l-8.4,2.3l-2.1,0.6l-0.8,0.2l-0.1,0l-0.3,0.1l-0.5,0.1l-1.7,0.4l-2.6,0.6c-9.6,2.2-19,4.1-28.6,6c-1.7,0.3-3.4,0.7-5.1,1.1
			c-22.5,4.3-45.2,7.6-68,9.7c-2,0.2-4,0.3-6,0.4c-3.3,0.3-6.7,0.5-10,0.7c-6.1,0.4-12.1,1-18.2,1.3c-5.7,0.3-11.4,0.5-17.1,0.6
			l-8.5,0.1l-1.9,0l-0.4,0l-1.1-0.1l-4.3-0.3c-3-0.2-5.7-0.5-8.2-0.8c-2.6-0.2-5.3-0.6-7.9-1c-2.7-0.4-5.3-0.8-7.9-1.4
			c-2.6-0.5-5.1-1.2-7.6-1.8c-4.9-1.4-9.6-3-13.6-5.2c-4-2.1-7.4-4.6-9.3-7.2c-1.9-2.6-2.8-5-2.7-8.3c0.1-3.3,1.2-7.3,3.4-11.4
			c4.4-8.2,11.6-16.2,19.7-23.3c16.2-14.4,35.9-26,56-36.3c-0.3,0.1-0.5,0.2-0.8,0.3l0.8-0.3c0,0,0,0-0.1,0
			c7.3-2.8,14.4-5.7,21.5-8.8c1.1-5.8,2.5-11.6,4.1-17c-0.9,0.3-1.8,0.6-2.7,0.9c-9.7,3.1-19.3,6.2-29,8.9l-0.1,0l-0.7,0.3
			c-22.1,8.9-43.6,19.8-63.2,35.1c-9.7,7.7-19,16.7-26.2,28.7c-3.5,6-6.5,13.2-7.1,21.5c-0.8,8.3,1.8,17.7,6.8,24.5
			c4.9,6.9,11.2,11.4,17.4,14.9c6.2,3.5,12.5,5.9,18.7,7.6c3.1,0.9,6.2,1.7,9.3,2.3c3.1,0.7,6.2,1.3,9.3,1.7
			c3.1,0.5,6.2,0.9,9.3,1.2c3.2,0.4,6.3,0.6,9.1,0.7l4.4,0.2l1.1,0.1l0.5,0l1.3,0l0.3,0l2.2-0.1l8.9-0.3c5.9-0.2,11.9-0.6,17.8-1
			c9.7-0.7,19.3-1.8,28.9-3c2.1-0.3,4.3-0.4,6.4-0.7c1.5-0.2,3-0.5,4.5-0.7c21.9-3.1,43.6-7.1,65.1-11.9c4.5-1,9.1-2.3,13.6-3.4
			c6.9-1.7,13.9-3.3,20.6-5.1l4.1-1.1l0.1,0l1.4-0.4l1-0.3l2.1-0.6l8.4-2.6l16.7-5.3c9.5-3.1,19-6.2,28.5-9.5
			c3.6-1.2,7.1-2.5,10.7-3.8c9.1-3.2,18.1-6.4,27.1-9.9c9-3.5,17.9-7.2,26.8-11.2c-3.6-3.4-6.9-7.9-9.8-13.5
			C382,246.9,374.4,249.8,366.7,252.6z"/>
		<path d="M292.5,306.3l-8.4,2.6l-2.1,0.6l-1.4,0.4l-1.6,0.4l-2.9,0.8c-0.3,1.9-0.8,3.9-1.6,5.9c-3.2,1.1-9.4,3.9-14.8-1.2
			c-0.2-0.2-0.4-0.4-0.5-0.6c-0.1,0-0.1,0-0.2,0l-4.9,1.2l-5.5,1.4c-2.8,0.7-5.5,1.4-8.3,2c-20.3,4.5-40.3,8.2-59.8,11.1
			c1.3,1.4,2.5,2.8,3.9,4.1c13.2,14.4,30.1,18.4,50.7,24.1c1.4,0.6,3.9,0.9,6.8,0.9c8.2,0,20-2,21.8-2.2c0,0,0,0-0.5-3
			c0.3-0.1,0.3-0.1,0.7-0.1c25-4.5,30.9-16,46.8-24c9.3-9.6,16.2-22.6,20.9-37.2c-7.4,2.5-14.8,5-22.3,7.4L292.5,306.3z"/>
		<path class="st0" d="M119.6,205.4c0.3-0.1,0.5-0.2,0.8-0.3c0,0,0,0,0.1,0L119.6,205.4z"/>
		<path class="st0" d="M151.5,198.3c1.1-5.7,2.4-11.1,3.9-16c-2,6.7-3.6,13.8-4.9,21.1l0,0L151.5,198.3z"/>
		<path d="M296.5,140.8c-17.8-12.2-37-19.6-58-19.6c-5.7,0-11.5,0.5-17.4,1.7c-30.9,10.2-50.9,23.6-61.1,41.7
			c-0.6,1.1-1.3,2.1-1.9,3.3c0,0.2,0.4,2.3,0.6,3.4l-3.2,10.9c0,0,0,0.1,0,0.2c-1.4,4.9-2.7,10.3-3.9,16l-1,5.1l0,0
			c-4.8,28.2-3.4,59.5,6,86.8c0.9-0.1,1.7-0.1,2.6-0.2l3-0.2c1-0.1,2-0.1,2.9-0.2c21.7-2,44.2-5.2,67-9.6l1.8-0.4
			c-23.4-42.4-41.3-102.9-10-115c-0.2,5.5,4.6,11,5,16c2.9,44.6,23,70.7,36.2,92.5c0.1,0,0.2,0,0.3-0.1l2.6-0.6l2.2-0.5l0.8-0.2
			l2.1-0.6l8.3-2.3L298,264c12.4-3.6,24.8-7.4,37-11.3c1.1-0.4,2.2-0.7,3.4-1.1C339.6,210.8,326.3,166.9,296.5,140.8z"/>
		<path d="M467,194.1l0.9,1.4c0.6,0.9,1.4,1.8,2.3,2.8c0.3,0.4,0.7,0.8,1.1,1.2c3.2-4.7,6.2-9.7,8.3-15.3c1.3-3.8,2.4-7.8,2.7-12
			c0.3-4.3-0.2-8.7-1.7-12.9c-3.1-8.5-9.8-14.6-16.6-18.4c-6.9-3.9-14.1-6.2-21.3-7.9c-7.2-1.6-14.4-2.6-21.7-3.2l-10.5-0.7
			c-3.6-0.3-7.3-0.4-10.9-0.5c-0.5,0-1,0-1.5,0c-13.9,0-27.6,1.4-41.1,3c-14,1.7-28,3.8-41.9,5.9l-1.6,0.2c0.4,1.9,0.8,3.8,1.2,5.7
			l1.2-0.1c14-1.5,27.9-3.1,41.9-4.2c10.6-0.8,21.2-1.5,31.7-1.5c3.3,0,6.6,0.1,9.9,0.2c3.4,0.2,6.8,0.4,10.2,0.8l10.6,1.1
			c6.7,0.9,13.4,2,19.9,3.8c6.4,1.7,12.7,4,17.9,7.4c5.2,3.3,9.3,7.6,10.8,12.5c1.6,4.9,0.8,10.6-1.4,16.3
			c-1.5,3.7-3.7,7.3-6.1,10.7c1.5,0.9,3.1,1.7,4.4,2.8L467,194.1z"/>
		<path d="M469.9,214.8c0,0,0,0-0.9,0.3c0-0.1,0-0.1-0.1-0.2c-1-3.4-2.3-5.5-3.7-7.3c-1.8-2.3-3.8-4.1-5.5-6.8
			c-1.3-1-2.8-1.9-4.4-2.7c-5-2.5-11.2-3.7-17.6-3.7c-14.2,0-29.9,5.9-38,17.3c-4.2,7.7-5.8,15.9-3.2,24.6c0.6,1.4,1.3,2.6,2,3.8
			c3.1,5.9,6.6,10.1,10.6,12.7c1.2,0.8,2.5,1.5,3.8,2c0.1,0,1.2-0.3,1.2-0.3c4.3,1.1,9.2,1.7,14.2,1.7c13.9,0,28.8-4.6,36.9-15.4
			c4.1-4.7,4.8-10.2,6-17C471.9,222,470.1,215.5,469.9,214.8z M453.6,220.2C453.6,220.2,453.6,220.2,453.6,220.2
			c-24.4,3.7-28.9,25.6-42,21c-0.5-1.2-1.8-3.6-0.4-5.8c0.3-0.5,0.7-1,1.1-1.5c4.9-6.8,16.2-15.7,26.6-19.7c7.7-3,14.8-3.2,18.6,2.1
			c0.4,0.5,0.8,1,1.1,1.7C456.8,218,455.3,220,453.6,220.2z"/>
		<path class="st2" d="M186.3,24.8c5.8,4.1,9.1,9,11.8,14.1c2.8,5.1,2.5,11.1,3.5,16.7c1,5.6,1.9,11.2,2.7,16.9
			c0.7,5.7,1.5,11.4,2,17.1c0,0.4-0.3,0.8-0.7,0.9c-0.3,0-0.6-0.1-0.8-0.4c-2.9-5-5.3-10.2-8-15.3c-2.5-5.1-5-10.3-7.3-15.5
			c-2.3-5.2-5.9-10-6.5-15.7c-0.7-5.7-0.7-11.6,1.8-18.3c0.2-0.5,0.8-0.8,1.3-0.6C186.1,24.7,186.2,24.8,186.3,24.8z"/>
		<path class="st2" d="M99.9,94.7c7.1-1,13,0.3,18.6,2.1c5.6,1.8,9.7,6.3,14.4,9.7c4.7,3.4,9.4,6.8,14,10.4
			c4.5,3.7,9.2,7.2,13.6,11.1c0.3,0.3,0.4,0.8,0.1,1.1c-0.2,0.2-0.5,0.3-0.8,0.2c-5.7-1.7-11.1-3.7-16.7-5.6
			c-5.5-2-10.9-4.1-16.3-6.3c-5.4-2.2-11.4-3.2-15.9-7c-4.5-3.7-8.8-8-11.7-14.5c-0.2-0.5,0-1.1,0.5-1.3
			C99.7,94.7,99.8,94.7,99.9,94.7z"/>
		<path class="st2" d="M298.4,16.5c1.9,7.9,1.2,14.9,0,21.7c-1.1,6.8-5.3,12.6-8.2,18.8c-2.8,6.2-5.8,12.4-8.9,18.6
			c-3.2,6.1-6.2,12.3-9.7,18.3c-0.2,0.4-0.7,0.5-1.1,0.3c-0.3-0.2-0.4-0.5-0.4-0.8c1-6.9,2.5-13.6,3.7-20.4
			c1.4-6.7,2.8-13.5,4.5-20.1c1.6-6.7,1.9-13.8,5.2-19.9c3.2-6.1,7.1-12,13.4-17c0.4-0.3,1-0.3,1.3,0.2
			C298.3,16.3,298.4,16.4,298.4,16.5z"/>
	</g>
</g>
<rect x="256" y="-62" class="st1" width="78" height="78"/>
<rect x="-160" y="-97" class="st1" width="78" height="78"/>
<rect y="274" class="st1" width="16" height="16"/>
</svg>
