<?xml version="1.0" encoding="utf-8"?>
<!-- Generator: Adobe Illustrator 21.1.0, SVG Export Plug-In . SVG Version: 6.00 Build 0)  -->
<svg version="1.1" id="Ebene_1" xmlns="http://www.w3.org/2000/svg" xmlns:xlink="http://www.w3.org/1999/xlink" x="0px" y="0px"
	 viewBox="0 0 500 500" style="enable-background:new 0 0 500 500;" xml:space="preserve">
<style type="text/css">
	.st0{fill:#4A2E1D;}
	.st1{fill:#CBBBA0;}
	.st2{fill:#F39200;}
	.st3{fill:#F7C07E;}
	.st4{fill:#6C4227;}
</style>
<g>
	<path class="st0" d="M359.4986572,200.5196381c-1.4393921-10.7105865-4.0466003-21.6958008-6.7498169-32.8683014
		c-4.9854736-20.6051025-13.157959-38.2021484-24.0487671-53.743248
		c-12.2266541-17.5947037-26.3641968-30.9520874-43.0091858-39.6481552
		c-18.41745-9.6652908-37.6252136-15.0847397-57.3058014-10.322979
		c-19.6805115,4.7617455-34.6463623,18.0300636-46.6082764,35.0457954
		c-10.8286285,15.3432846-17.3963928,33.8501358-20.2272797,55.0881424
		c-2.5498047,18.9330292-4.647934,39.1547852,0.3375092,59.7598877c2.2175598,9.1652832,5.3225861,17.8647766,9.0297394,26.0733032
		C235.1362152,235.7705994,298.2666321,222.2050171,359.4986572,200.5196381z"/>
	<path class="st0" d="M197.8759918,281.8431702c10.0271149,11.067688,21.4397125,19.8867493,33.5018921,26.1885376
		c18.41745,9.6652832,38.3665924,12.9479065,58.0471649,8.1861267
		c19.6805115-4.7617188,36.2825928-16.4684753,48.2445068-33.4841919
		c9.0510864-12.8247681,16.5651245-28.3157959,20.4460144-45.4560699
		C306.465271,259.4187927,252.3300018,271.2897034,197.8759918,281.8431702z"/>
	<path class="st1" d="M264.3483887,198.1281128c6.822998-43.4559479,20.4567566-94.0126572-28.1253052-120.2882385
		l-1.1291046,1.1120529c29.7345123,29.8570633,14.6264038,74.898262,9.6993408,111.7435989
		c-1.9508362,14.4571686-1.9227905,27.7698212,0.0757294,40.2795563c6.0101013-1.0674133,12.0030518-2.2423859,17.9872437-3.4698486
		C262.303772,218.2367249,262.7129822,208.5384674,264.3483887,198.1281128z"/>
	<path class="st1" d="M258.3153687,269.080658c6.2966309,11.1468811,14.572998,21.8478699,24.8929138,32.4226685l1.39328-1.1759949
		c-5.33255-11.7686768-10.1412354-22.9828491-13.9006653-34.2593994
		C266.5802307,267.1045227,262.4502258,268.1026001,258.3153687,269.080658z"/>
	<path class="st2" d="M383.071991,197.6053467c-18.5402527,7.7307129-37.6199646,14.2821198-56.9433594,19.9619598
		c-19.3274231,5.681076-38.9092407,10.4990692-58.6237488,14.5662079
		c-19.7284241,4.0014648-39.5428009,7.4131317-59.4112701,9.8994293
		c-9.9316406,1.2534943-19.8802948,2.2095184-29.8033905,3.0525208c-9.9249573,0.819809-19.8434906,1.3875122-29.7182465,1.6311035
		c-9.873764,0.2522125-19.7046661,0.1667023-29.4082336-0.3240662c-9.697525-0.4580078-19.2831192-1.2893219-28.5160446-2.6015015
		c-4.6052399-0.6843109-9.1400909-1.4462585-13.4631653-2.4495697c-4.3190765-0.973053-8.4862671-2.1232147-12.1701965-3.5523834
		c-3.684864-1.4058838-6.9172897-3.0982208-9.0300255-4.7127075c-1.0606422-0.7991791-1.8163986-1.549057-2.2921715-2.1300354
		c-0.4802742-0.592514-0.7082748-0.9807739-0.8906288-1.3908997c-0.1574059-0.4153137-0.2749672-0.8878021-0.2470856-1.6959381
		c0.0284462-0.795578,0.2424583-1.9038239,0.7189903-3.207016c0.935936-2.6204224,2.884407-5.8643799,5.4062347-9.0354309
		c5.060112-6.4324341,12.1125412-12.6326447,19.5812302-18.3963013
		c15.073616-11.6124725,32.4273682-21.4518738,50.1621399-30.4741058
		c8.4352722-4.2291565,16.2375488-7.891983,24.9297485-11.6958466c0,0,0.13591-7.8223877,1.3342896-13.3642883
		c1.8880157-8.7312012,2.8506165-11.9558563,2.8506165-11.9558563
		c-13.2554932,4.2911377-26.4116211,9.0211182-39.4189682,14.3413849
		c-9.734024,3.9600372-19.3637848,8.3012848-28.8593445,13.1156921
		c-9.4981079,4.8158875-18.8761673,10.0757446-28.0330238,16.1619873c-4.58535,3.0406189-9.0750046,6.3328705-13.4804459,9.9594116
		c-4.3968468,3.6447601-8.7162437,7.5838928-12.8168755,12.2060394c-4.0778351,4.6239777-8.0400448,9.8831177-11.1134777,16.6944885
		c-1.5152435,3.403595-2.7796383,7.2411957-3.406271,11.5216064c-0.6336212,4.2603302-0.5576153,8.9814911,0.4728165,13.5471497
		c1.0382557,4.5630951,3.0123158,8.8824463,5.437397,12.4953918c2.4272137,3.6341095,5.2473087,6.6072083,8.1098785,9.0835876
		c5.7648811,4.9414062,11.6765137,8.1096191,17.4247589,10.6195068c11.5213737,4.9483643,22.6795425,7.456665,33.7132416,9.1003418
		c22.037674,3.2201843,43.4680405,2.6711731,64.6044083,1.2781372c21.1305084-1.4776306,41.9661102-4.2530823,62.5400543-8.0937805
		c20.5749359-3.805542,40.9154663-8.489563,60.9727478-14.0871887
		c40.1038513-11.1823883,79.3705139-25.3010712,116.8687134-43.6065674
		c2.2377014-1.0944061,4.4637756-2.2147522,6.6817932-3.3528595c-4.0200806-4.4131317-6.4154358-10.5953979-7.4805298-15.9521637
		C387.5346985,195.7286224,385.3070679,196.6770477,383.071991,197.6053467z"/>
	<path class="st2" d="M475.0491333,117.4664078c-1.8539429-2.6290359-4.0532227-4.8463135-6.3693542-6.7361221
		c-4.6625061-3.76548-9.7243958-6.3696518-14.8181458-8.4443741c-10.2241211-4.1123199-20.6860046-6.172699-31.0853271-7.7039337
		c-10.4148254-1.4827728-20.8363037-2.1687546-31.2276917-2.4401169
		c-10.3916626-0.3053436-20.7624817-0.1393738-31.1028442,0.3104782
		c-11.8252258,0.4929504-23.6108704,1.3974533-35.3630371,2.5866547l7.9516907,10.818634
		c9.2939148-1.056015,18.6109314-1.8691101,27.9430847-2.390007c20.1737061-1.036026,40.4886475-0.8494797,60.1982117,2.073967
		c9.811554,1.4699249,19.5282288,3.7219543,28.2612,7.3984451c4.3393555,1.8409653,8.4216003,4.0973587,11.6367188,6.8877411
		c3.2380981,2.7771454,5.440155,6.0113983,6.2015686,9.4447937c0.7475891,3.4344177,0.1412964,7.2391815-1.6040649,11.0637054
		c-0.0417786,0.0928802-0.0908203,0.1850586-0.1337585,0.2777863c4.0190125,2.8825378,7.0140381,6.4058075,8.9682617,10.5803528
		c1.0742188-1.8647614,2.0537415-3.8243713,2.9012146-5.9010468c1.1315918-2.8021545,2.0022278-5.8314209,2.3874207-9.0475311
		c0.3854065-3.2076263,0.2312927-6.6091003-0.5860291-9.8605042
		C478.3805237,123.1361008,476.9025879,120.084549,475.0491333,117.4664078z"/>
	<g>
		<path class="st0" d="M444.7926331,138.9647064c-6.2832336-0.2484436-12.8422546,1.4290619-19.3079224,4.4623566
			c-5.6713562,2.706192-11.8566284,5.8563995-16.6724854,11.0918427
			c-4.9512024,5.2446442-8.3460083,11.3357849-10.6654358,17.2165527c-2.670166,6.7223206-3.6946106,13.603714-2.9940796,19.8214569
			c0.7564392,7.0312195,3.4998779,13.2445068,8.4549255,17.9433594c4.954834,4.6989136,11.3967896,7.2521667,18.3578491,7.4539642
			c6.2832336,0.2484436,13.2863464-0.9148254,19.8877258-3.957489c5.8064575-2.7154083,10.4962463-7.8059235,15.4475098-13.0506744
			s8.3833313-10.7935333,10.6934204-16.8098602c2.6702576-6.7223511,3.8583374-13.2063141,3.1578369-19.424057
			c-0.7564697-7.0312195-2.6959534-13.4361267-7.786499-18.1256714
			C458.4107666,140.8876343,451.8890991,139.1572113,444.7926331,138.9647064z"/>
		<path class="st1" d="M406.4365845,205.0827789c3.3302002-14.9407349,10.5494995-24.836792,24.131012-31.3567963
			c11.3421631-5.412323,26.8632507-9.4777679,29.7166138-23.4321594l0.5514832,0.0982513
			c1.5499268,18.5550385-15.233551,24.0695648-28.7077026,30.1735382
			c-12.1553955,5.4683075-18.374054,14.0695038-25.1398926,24.6154175L406.4365845,205.0827789z"/>
	</g>
	<path class="st3" d="M271.8405457,246.5899506c-4.5723877,0.8399658-9.1495667,1.654068-13.7313843,2.4420319
		c-9.1633301,1.5761108-18.3445587,3.048111-27.5413971,4.4156952c-18.3936615,2.7352448-36.8493652,5.0530243-55.3481903,6.9506073
		c-16.162796,1.6578064-32.1109467,2.63797-48.3646469,2.486908c-33.0400772-0.3072205-95.6492004-1.9702454-95.6309509-47.0945892
		c-0.4377785-0.0426331-0.9244938-0.0586395-1.4699326-0.0646057c-2.2447968,5.5335999-4.0211258,11.1716309-3.0314369,17.3191986
		c2.5908375,16.0908051,17.7155094,24.5837708,31.7821484,29.3585205
		c20.3046913,6.8921509,41.498539,9.8063965,62.8987541,9.6734314c17.8425827-0.1108093,36.0696945-0.621521,53.9464493-2.6825867
		c33.6230011-3.8765564,66.91922-11.2140198,99.2552643-21.2518158c0.0612183-0.626236,0.0678406-1.357132,0.0686951-2.2185059
		C273.5236206,246.2530212,272.6880493,246.4342651,271.8405457,246.5899506z"/>
	<path class="st4" d="M197.0851898,93.5280075c-3.6293488,1.4235687-7.181488,7.7118149-9.2465515,10.9245377
		c-2.6677094,4.1503067-4.8776703,8.5824432-6.7503357,13.143158c-3.8088837,9.2762222-6.224472,19.0643921-8.227417,28.8680115
		c-3.3472137,16.3832397-5.7791138,33.1882935-3.8710022,49.8007355c0.9378662,8.1652069,2.9178314,16.170105,5.3327026,24.0139008
		c1.2123108,3.9377441,2.5391541,7.8391418,3.9047241,11.7260284c0.581604,1.6554413,1.8040466,5.7400208,2.4000397,7.2022858
		l10.4900208-0.9158783l7.1856384-0.7246857l6.0770111-0.6746368c-2.6280365-4.3750458-8.7490082-26.5286713-10.8831482-40.4137421
		c-2.7278442-17.7478333-2.9056702-35.7643738-2.7033997-53.6811981c0.1029968-9.1233826,1.1201782-18.0714569,2.0742798-27.1508102
		c0.5001068-4.7668686,1.0131226-9.5448303,2.0593109-14.2222824c0.27742-1.2403183,0.5921021-2.4722824,0.9439392-3.6953888
		C196.2666168,96.3586273,196.7280884,94.7781601,197.0851898,93.5280075z"/>
	<path class="st4" d="M206.6072845,280.1375732c0,0,13.6264801,13.3239441,21.7801971,18.5332642
		c8.1537323,5.2093201,16.6472015,8.8049011,16.6472015,8.8049011s-17.4164886-19.2088013-23.3170013-30.3709106
		L206.6072845,280.1375732z"/>
	<g>
		<path class="st0" d="M81.0808792,365.617218c1.4060669,0.3755493,1.9687576,0.9382629,1.7816391,2.5321045l-1.2189484,7.5007935
			c-0.1877823,0.9382629-0.7504807,1.4067078-1.6880798,1.4067078H60.8266182
			c-12.93993,0-16.0340729,5.6256104-18.9410934,23.9104309c-3.0005798,18.2848511-1.593853,24.0046692,11.346077,24.0046692
			h19.2224388c0.9375992,0,1.3125076,0.4697876,1.1253815,1.4067383l-1.2189407,7.5950012
			c-0.1877899,1.500946-1.0318298,2.0636597-2.4378967,2.4378967c-4.7822189,0.9382629-10.5020332,1.4067383-18.7539673,1.4067383
			c-23.9110947,0-28.6933155-8.4390564-24.1917782-36.8510437c4.5002098-28.410614,12.0023289-36.7567749,35.9127579-36.7567749
			C71.0473099,364.2104797,76.6735687,364.7731628,81.0808792,365.617218z"/>
		<path class="st0" d="M130.1200256,411.0943909c-3.4690475,21.3796387-8.7203979,26.7239075-28.2241821,26.7239075
			c-19.4095612,0-23.0670624-5.3442688-19.6909103-26.7239075c3.3754883-21.4725342,8.7204056-26.723877,28.2241898-26.723877
			S133.49617,389.6218567,130.1200256,411.0943909z M96.1760254,411.0943909
			c-1.8751984,11.8152161-0.9375992,14.7215576,7.5950165,14.7215576c8.6268387,0,10.5027008-2.9063416,12.3778992-14.7215576
			c1.8751907-11.8138733,0.9375916-14.7215576-7.6892471-14.7215576
			C99.9270782,396.3728333,98.0512238,399.2805176,96.1760254,411.0943909z"/>
		<path class="st0" d="M214.604126,365.2416382c0.9376068,0.188446,1.4067383,0.6569214,1.2189484,1.7822876l-1.2189484,7.782135
			c-0.1877899,1.0311584-0.750473,1.5009766-1.8751984,1.5009766h-7.3143311c-3.6568298,0-5.3449097,0.4684448-5.9069366,3.6561584
			l-0.7504883,4.9700012h11.3460846c1.1253815,0,1.3125,0.4684753,0.9375916,1.5938416l-2.6256714,7.8763733
			c-0.3749084,0.9382629-0.9375916,1.3138428-1.7816315,1.3138428h-9.5644379l-6.3760681,40.1315918
			c-0.0935669,1.0325012-0.6562653,1.5009766-1.5938568,1.5009766h-11.1582947
			c-0.9375916,0-1.3131714-0.4684753-1.1253815-1.5009766l6.3760681-40.1315918h-23.4419556l-6.3760834,40.1315918
			c-0.1877747,1.0325012-0.750473,1.5009766-1.6880646,1.5009766h-11.064743c-0.9375916,0-1.3125-0.4684753-1.2189331-1.5009766
			l6.3767242-40.1315918h-6.0011597c-1.1253815,0-1.5945129-0.4698181-1.406723-1.4067383l1.3125-7.9705811
			c0.094223-0.9382629,0.65625-1.4067383,1.6880798-1.4067383h6.0947266l1.2189331-7.4078979
			c1.8758698-11.8138733,10.1271362-13.2206116,18.5661926-13.2206116c2.9070129,0,6.6574097,0.2813416,10.0335693,0.9369507
			c0.9375916,0.188446,1.4060669,0.6569214,1.2189484,1.7822876l-1.2189484,7.782135
			c-0.1877899,1.0311584-0.8440399,1.5009766-1.8758698,1.5009766h-7.4072266c-3.6575012,0-5.3449097,0.4684448-5.8140411,3.6561584
			l-0.8440399,4.9700012h23.5361938l1.1253815-7.4078979c1.8751984-11.8138733,10.1264648-13.2206116,18.6597443-13.2206116
			C207.4775848,364.3046875,211.2286377,364.5860291,214.604126,365.2416382z"/>
		<path class="st0" d="M258.6732788,410.4388123l-0.4684753,2.9063416c-0.2813416,1.8752136-0.9382629,2.532135-3.3761597,2.532135
			h-29.4431305c-1.1247101,8.4390259,0.8440399,9.9386597,9.0959778,9.9386597h16.596756
			c0.9382629,0,1.3125153,0.4698181,1.2182922,1.4067383l-1.2182922,7.7834778
			c-0.1877747,1.0311584-0.750473,1.4053955-1.5938416,1.4996033c-5.1577911,1.0311584-12.0023346,1.3125305-18.1912842,1.3125305
			c-18.9410858,0-22.6921539-5.3442688-19.3159943-26.7239075c3.3754883-21.4725342,8.9075165-26.723877,27.8486176-26.723877
			C258.297699,384.3705139,261.9552002,389.5276184,258.6732788,410.4388123z M226.6986847,406.781311h18.5661926
			c1.3125-8.2519226-0.4691315-10.4084778-7.4078979-10.4084778
			C230.8239899,396.3728333,228.1047516,398.5293884,226.6986847,406.781311z"/>
		<path class="st0" d="M312.3081665,410.4388123l-0.4684448,2.9063416c-0.2813721,1.8752136-0.9382629,2.532135-3.3761597,2.532135
			h-29.4431458c-1.1253662,8.4390259,0.8440552,9.9386597,9.0959778,9.9386597h16.5967712
			c0.9382629,0,1.3125,0.4698181,1.2196045,1.4067383l-1.2196045,7.7834778
			c-0.1871338,1.0311584-0.7498169,1.4053955-1.5938416,1.4996033c-5.157135,1.0311584-12.0023499,1.3125305-18.1919556,1.3125305
			c-18.9404297,0-22.6908264-5.3442688-19.3160095-26.7239075c3.3761597-21.4725342,8.9088745-26.723877,27.8492737-26.723877
			C311.9339294,384.3705139,315.5901184,389.5276184,312.3081665,410.4388123z M280.3329468,406.781311h18.5661621
			c1.3125305-8.2519226-0.4684448-10.4084778-7.4078979-10.4084778
			C284.4588928,396.3728333,281.7396545,398.5293884,280.3329468,406.781311z"/>
		<path class="st2" d="M388.2596741,364.7731628c0.9382629,0,1.3125,0.4684753,1.2196045,1.500946l-11.0653992,69.5747375
			c-0.1871338,1.0325012-0.7498169,1.5009766-1.6867371,1.5009766h-8.7203979c-2.2507935,0-3.3761597-0.5627136-4.3144226-2.3436584
			l-23.6290894-45.1029663l-7.3136597,45.9456482c-0.0942383,1.0325012-0.6569214,1.5009766-1.5938721,1.5009766h-11.9094238
			c-0.9369202,0-1.3125-0.4684753-1.2182922-1.5009766l11.0640869-69.5747375
			c0.0942078-1.0324707,0.6569214-1.500946,1.5938416-1.500946h9.2830811c3.7517395,0,4.1259766,0.8440552,5.3455811,3.0948181
			l22.3165894,42.476593l7.0323181-44.0704651c0.0942383-1.0324707,0.6569214-1.500946,1.5938416-1.500946H388.2596741z"/>
		<path class="st2" d="M439.5495911,410.4388123l-0.4684753,2.9063416c-0.2813416,1.8752136-0.9382629,2.532135-3.3761597,2.532135
			h-29.4431152c-1.1253967,8.4390259,0.8440247,9.9386597,9.0959473,9.9386597h16.5967712
			c0.9382629,0,1.3125,0.4698181,1.2182922,1.4067383l-1.2182922,7.7834778
			c-0.1871033,1.0311584-0.7498169,1.4053955-1.5938416,1.4996033c-5.157135,1.0311584-12.0023193,1.3125305-18.1906128,1.3125305
			c-18.9417725,0-22.6921692-5.3442688-19.3173218-26.7239075c3.3761292-21.4725342,8.908844-26.723877,27.8492737-26.723877
			C439.1740112,384.3705139,442.8315125,389.5276184,439.5495911,410.4388123z M407.5743408,406.781311h18.5661926
			c1.3125-8.2519226-0.4684753-10.4084778-7.4078979-10.4084778
			C411.7003174,396.3728333,408.9810791,398.5293884,407.5743408,406.781311z"/>
		<path class="st2" d="M469.7438354,370.3058472c1.031189-0.2813416,1.4996338,0.3742676,1.3125305,1.4067383l-2.1565552,13.4077454
			h8.6261902c1.0311584,0,1.500946,0.4697876,1.4067078,1.4067078l-1.2196045,7.5021362
			c-0.1871033,0.9369202-0.7498169,1.4067383-1.7809753,1.4067383h-8.7203979l-3.9388428,25.5984802
			c-0.6555786,4.0317383,0.5626831,4.7815552,4.6886597,4.7815552h3.9388428c1.0311584,0,1.4996338,0.3755798,1.4067383,1.4067383
			l-1.3138428,7.9705811c-0.1871033,1.1253967-0.8427124,1.5938416-1.7809753,1.7809753
			c-3.3761597,0.6569214-6.0953674,0.8440552-8.1577148,0.8440552c-8.0647888,0-15.378479-0.2813721-13.5032654-12.0952454
			l4.7828674-30.2871399h-5.438446c-1.031189,0-1.5009766-0.4698181-1.3125305-1.4067383l1.2182922-7.5021362
			c0.0942383-0.9369202,0.6569214-1.4067078,1.7822876-1.4067078h5.4384766l1.5938721-10.4071655
			c0.1871033-0.9382629,0.6555786-1.3138123,1.5938416-1.500946L469.7438354,370.3058472z"/>
	</g>
</g>
</svg>
